<svg data-name="Layer 1" xmlns="http://www.w3.org/2000/svg" viewBox="0 0 31.131 35.173"><title>icon-pencil-pen</title><path d="M31.093 8.15a.724.724 0 0 0-.358-.421l-1.807-.926 1.239-2.41a.721.721 0 0 0-.312-.97l-3.733-1.915a.721.721 0 0 0-.969.312l-1.519 2.957a.627.627 0 0 0-.068.086.619.619 0 0 0-.03.1l-5.411 10.533h-.105l.087-8.225a.713.713 0 0 0-.071-.317l-2.22-4.657-.038-1.595a.718.718 0 0 0-.719-.7h-.017a.72.72 0 0 0-.7.737l.023 1.132a.625.625 0 0 0-.046.079l-2.175 5.245a.727.727 0 0 0-.051.276v8.025h-1.037L6.513 7.433a.726.726 0 0 0-.22-.239L1.128 3.642a.721.721 0 0 0-1.122.687l.831 6.323a.742.742 0 0 0 .09.266l2.676 4.636a.7.7 0 0 0-.255.174.72.72 0 0 0-.19.545l1.093 13.943h-.222a.719.719 0 0 0-.719.72v3.517a.719.719 0 0 0 .719.72h19.926a.72.72 0 0 0 .72-.72v-3.517a.72.72 0 0 0-.72-.72h-.222l1.094-13.945a.7.7 0 0 0-.405-.7l3.851-7.49 1.168.6-3.4 6.6a.72.72 0 1 0 1.279.659l3.727-7.236a.721.721 0 0 0 .046-.554zm-4.987-5.032l2.455 1.258-.911 1.771-2.457-1.258zm-10.32 12.378l-.093-6.987.961-.049-.073 7.036zm-.757-11.5l1.447 3.033-2.763.142zm-1.5 4.626l.727-.037.092 6.913h-.819zm-8.295 6.874l-2.456-4.254.832-.538 2.852 4.792zm2.905 0L4.834 9.944c0-.009-.013-.013-.019-.021l1.061-.687 3.528 6.26zM5.027 8.071L2.193 9.906l-.548-4.161zm18.209 25.663H4.749v-2.078h18.487zM5.693 30.216L4.654 16.937h18.677l-1.038 13.279zm17.15-14.72h-3.1l4.794-9.325 2.456 1.256z" fill="#3ab54a"/></svg>