<svg data-name="Layer 1" xmlns="http://www.w3.org/2000/svg" viewBox="0 0 35.172 35.24"><title>icon-bike</title><path d="M28.306 21.506c-.2 0-.406.014-.607.031a13.631 13.631 0 0 0-2-3.738l2.137-3.242c1.314.578 3.294.992 4.515.132a3.263 3.263 0 0 0 1.4-3.283 2.712 2.712 0 0 0-2.455-1.955c-.076-.011-7.76-.865-8.52 1.155a1.647 1.647 0 0 0 .047 1.328c.512 1.054 2.11 1.559 3.394 1.966l.273.086-1.708 2.591c-2.476-2.862-8.613-5.142-12.487-5.542l.665-6.337a1.439 1.439 0 0 1 .073-.316 1.508 1.508 0 0 1 1.327-1.25 5.385 5.385 0 0 1 1.163-.168 1.762 1.762 0 0 0 .333.861 1.954 1.954 0 0 0 1.808.736l4.081.14a1.744 1.744 0 0 0 1.715-1.518l.214-1.187a1.581 1.581 0 0 0-.365-1.307A2.186 2.186 0 0 0 21.583 0l-2.349.039a3.412 3.412 0 0 0-3.255 1.481 7.1 7.1 0 0 0-2 .225 2.872 2.872 0 0 0-2.309 2.164 2.728 2.728 0 0 0-.142.607l-1.109 10.568c-.112 0-.221-.017-.333-.017a10.145 10.145 0 1 0 1.764.165l.29-2.765c4.2.411 10.608 3.132 12.04 5.718.006.011.019.015.026.026a.905.905 0 0 0 .045.08 12.151 12.151 0 0 1 2.016 3.529 6.865 6.865 0 1 0 2.039-.31zm-4.191-10.2a.161.161 0 0 1-.016-.122c.661-.45 4.4-.692 6.981-.308.5.075 1.128.286 1.265.863a1.877 1.877 0 0 1-.826 1.774c-.69.487-2.455.135-3.57-.5l-.025-.014-.014-.008a9.08 9.08 0 0 0-1.262-.458c-.802-.26-2.288-.731-2.533-1.228zm-7.133-8.717c.624-.9.9-1.087 2.275-1.11l2.351-.039a.824.824 0 0 1 .6.181.156.156 0 0 1 .046.118l-.214 1.187c-.025.139-.128.337-.25.335l-4.13-.141h-.025a.664.664 0 0 0-.075 0 .6.6 0 0 1-.549-.153.417.417 0 0 1-.029-.378zm1.751 22.564a8.647 8.647 0 1 1-8.647-8.646c.062 0 .121.008.182.01l-.068.649c-.038 0-.075-.006-.114-.006a8.006 8.006 0 1 0 1.546.153l.068-.649a8.656 8.656 0 0 1 7.033 8.489zm-9.181-1.809a1.9 1.9 0 1 0 1.431.15l.5-4.741a6.549 6.549 0 1 1-1.432-.151zM28.306 33.8a5.427 5.427 0 0 1-1.6-10.614c.065.237.128.482.187.738a4.631 4.631 0 1 0 1.424-.238q-.085-.378-.18-.732c.055 0 .109-.008.165-.008a5.427 5.427 0 1 1 0 10.854zm-.938-7.065a1.894 1.894 0 1 0 1.429-.185c-.055-.489-.12-.953-.193-1.4a3.236 3.236 0 1 1-1.428.184q.11.664.192 1.401z" fill="#3bbcff"/></svg>