<svg id="Layer_1" data-name="Layer 1" xmlns="http://www.w3.org/2000/svg" viewBox="0 0 35.455 34.134"><defs><style>.cls-1{fill:#fff}.cls-2{fill-opacity:.1}</style></defs><title>icon-school</title><path class="cls-1 cls-2" d="M18.184 17.742a3.111 3.111 0 1 1 3.111-3.11 3.113 3.113 0 0 1-3.111 3.11zm0-4.781a1.671 1.671 0 1 0 1.671 1.671 1.672 1.672 0 0 0-1.671-1.671z" transform="translate(-.457 -.643)" fill="#3bbcff"/><path class="cls-1 cls-2" d="M35.8 11.283L29.372.981a.721.721 0 0 0-.611-.338H7.608A.721.721 0 0 0 7 .981L.566 11.283a.72.72 0 0 0 .611 1.1h1.866v20.954H1.8a.72.72 0 1 0 0 1.439h32.774a.72.72 0 1 0 0-1.439h-1.248V12.384h1.866a.72.72 0 0 0 .611-1.1zM21.212 33.337h-6.055v-7.4a3.033 3.033 0 0 1 6.055 0zm1.44 0v-7.4a4.471 4.471 0 0 0-8.935 0v7.4H4.483V12.384h8.241a.722.722 0 0 0 .495-.2l4.965-4.704 4.966 4.707a.723.723 0 0 0 .5.2h8.241v20.95zm1.28-22.393l-5.253-4.979a.721.721 0 0 0-.991 0l-5.251 4.979H2.475l5.532-8.861h20.355l5.532 8.861z" transform="translate(-.457 -.643)" fill="#3bbcff"/><path class="cls-1 cls-2" d="M28.837 23.738h-3.085a.72.72 0 0 0-.72.72v5.5a.72.72 0 0 0 .72.72h3.085a.72.72 0 0 0 .72-.72v-5.5a.721.721 0 0 0-.72-.72zm-.72 5.5h-1.645v-4.06h1.645zm-17.5-5.5H7.532a.721.721 0 0 0-.72.72v5.5a.72.72 0 0 0 .72.72h3.085a.72.72 0 0 0 .72-.72v-5.5a.72.72 0 0 0-.72-.72zm-.72 5.5H8.252v-4.06H9.9zm.72-13.995H7.532a.72.72 0 0 0-.72.72v4.363a.72.72 0 0 0 .72.72h3.085a.72.72 0 0 0 .72-.72v-4.363a.72.72 0 0 0-.72-.72zM9.9 19.606H8.252v-2.923H9.9zm18.937-4.363h-3.085a.72.72 0 0 0-.72.72v4.363a.72.72 0 0 0 .72.72h3.085a.72.72 0 0 0 .72-.72v-4.363a.72.72 0 0 0-.72-.72zm-.72 4.363h-1.645v-2.923h1.645z" transform="translate(-.457 -.643)" fill="#3bbcff"/></svg>