<svg data-name="Layer 1" xmlns="http://www.w3.org/2000/svg" viewBox="0 0 35.455 34.134"><title>icon-school</title><path d="M17.727 17.099a3.111 3.111 0 1 1 3.111-3.11 3.113 3.113 0 0 1-3.111 3.11zm0-4.781a1.671 1.671 0 1 0 1.671 1.671 1.672 1.672 0 0 0-1.671-1.671z" fill="#3bbcff"/><path d="M35.343 10.64L28.915.338A.721.721 0 0 0 28.304 0H7.151a.721.721 0 0 0-.608.338L.109 10.64a.72.72 0 0 0 .611 1.1h1.866v20.954H1.343a.72.72 0 1 0 0 1.439h32.774a.72.72 0 1 0 0-1.439h-1.248V11.741h1.866a.72.72 0 0 0 .611-1.1zM20.755 32.694H14.7v-7.4a3.033 3.033 0 0 1 6.055 0zm1.44 0v-7.4a4.471 4.471 0 0 0-8.935 0v7.4H4.026V11.741h8.241a.722.722 0 0 0 .495-.2l4.965-4.704 4.966 4.707a.723.723 0 0 0 .5.2h8.241v20.95zm1.28-22.393l-5.253-4.979a.721.721 0 0 0-.991 0l-5.251 4.979H2.018L7.55 1.44h20.355l5.532 8.861z" fill="#3bbcff"/><path d="M28.38 23.095h-3.085a.72.72 0 0 0-.72.72v5.5a.72.72 0 0 0 .72.72h3.085a.72.72 0 0 0 .72-.72v-5.5a.721.721 0 0 0-.72-.72zm-.72 5.5h-1.645v-4.06h1.645zm-17.5-5.5H7.075a.721.721 0 0 0-.72.72v5.5a.72.72 0 0 0 .72.72h3.085a.72.72 0 0 0 .72-.72v-5.5a.72.72 0 0 0-.72-.72zm-.72 5.5H7.795v-4.06h1.648zm.72-13.995H7.075a.72.72 0 0 0-.72.72v4.363a.72.72 0 0 0 .72.72h3.085a.72.72 0 0 0 .72-.72V15.32a.72.72 0 0 0-.72-.72zm-.717 4.363H7.795V16.04h1.648zM28.38 14.6h-3.085a.72.72 0 0 0-.72.72v4.363a.72.72 0 0 0 .72.72h3.085a.72.72 0 0 0 .72-.72V15.32a.72.72 0 0 0-.72-.72zm-.72 4.363h-1.645V16.04h1.645z" fill="#3bbcff"/></svg>