<svg data-name="Layer 1" xmlns="http://www.w3.org/2000/svg" viewBox="0 0 26.132 34.658"><title>icon-questionmark</title><path d="M12.316 34.658a4.866 4.866 0 1 1 4.865-4.866 4.872 4.872 0 0 1-4.865 4.866zm0-8.292a3.426 3.426 0 1 0 3.426 3.426 3.43 3.43 0 0 0-3.426-3.426zm3.8-1.867H8.529a.721.721 0 0 1-.72-.72v-.227a11.222 11.222 0 0 1 .516-3.735 8.31 8.31 0 0 1 1.551-2.621 47.683 47.683 0 0 1 4.635-4.174c1.293-1.055 1.92-1.992 1.92-2.87a2.629 2.629 0 0 0-.771-2.023 3.321 3.321 0 0 0-2.331-.728 3.773 3.773 0 0 0-2.787 1.115 5.749 5.749 0 0 0-1.319 3.2.719.719 0 0 1-.8.6l-7.794-.962a.718.718 0 0 1-.624-.812 12.359 12.359 0 0 1 3.6-7.446c2.133-2.054 5.448-3.1 9.855-3.1a14.668 14.668 0 0 1 8.355 2.163 8.9 8.9 0 0 1 4.314 7.78 7.53 7.53 0 0 1-1.112 3.89 19.3 19.3 0 0 1-4.553 4.578 12.164 12.164 0 0 0-3.025 3.069 5.31 5.31 0 0 0-.61 2.353.721.721 0 0 1-.715.67zm-6.858-1.44h6.2a6.279 6.279 0 0 1 .715-2.274 13.2 13.2 0 0 1 3.4-3.509 18.024 18.024 0 0 0 4.208-4.184 6.122 6.122 0 0 0 .913-3.153 7.555 7.555 0 0 0-3.684-6.588 13.286 13.286 0 0 0-7.542-1.91c-4.021 0-7 .9-8.857 2.692a10.74 10.74 0 0 0-3.059 5.884l6.374.789a6.5 6.5 0 0 1 1.589-3.3 5.167 5.167 0 0 1 3.814-1.545 4.691 4.691 0 0 1 3.322 1.113 4.042 4.042 0 0 1 1.225 3.078c0 1.338-.8 2.641-2.446 3.982a44.256 44.256 0 0 0-4.463 4.007 6.894 6.894 0 0 0-1.284 2.167 9 9 0 0 0-.427 2.751z" fill="#b056da"/></svg>