<svg data-name="Layer 1" xmlns="http://www.w3.org/2000/svg" viewBox="0 0 35.122 31.827"><title>icon-hearts</title><path d="M22.539 31.828a.671.671 0 0 1-.522-.248l-2.244-2.766-.81 1.019a.671.671 0 0 1-.93.119L4.91 20.094A10.975 10.975 0 0 1 .31 8.469a8.408 8.408 0 0 1 7.089-6.621c2.788-.337 5.95 1.453 7.852 3.609C16.534 2.943 19.18.4 21.926.063a8.315 8.315 0 0 1 7.47 3.031 10.646 10.646 0 0 1 2.036 9.32 6.2 6.2 0 0 1 3.435 4.135 7.846 7.846 0 0 1-3.065 8.349l-8.854 6.8a.674.674 0 0 1-.409.13zm-2.244-4.5l2.353 2.9 8.336-6.4A6.521 6.521 0 0 0 33.57 16.9a4.737 4.737 0 0 0-3.962-3.609c-1.671-.217-3.808 1.189-4.747 2.623a.683.683 0 0 1-.639.3.674.674 0 0 1-.554-.435c-.6-1.629-2.368-3.512-4.041-3.718a4.672 4.672 0 0 0-4.686 2.643 6.339 6.339 0 0 0 1 7.254l4.35 5.356zM8.083 3.151a4.246 4.246 0 0 0-.522.031 7.094 7.094 0 0 0-5.946 5.612A9.649 9.649 0 0 0 5.7 19.006l12.618 9.482.587-.74-4-4.925a7.752 7.752 0 0 1-1.157-8.75 5.987 5.987 0 0 1 6.038-3.347 6.96 6.96 0 0 1 4.653 3.56 6.837 6.837 0 0 1 5.332-2.332c.126.015.25.035.373.058a9.282 9.282 0 0 0-1.779-8.054 6.992 6.992 0 0 0-6.276-2.56c-2.548.316-5.178 3.14-6.037 5.586a.672.672 0 0 1-1.19.156c-1.375-2.019-4.327-3.989-6.779-3.989z" fill="#3bbcff"/></svg>