<svg data-name="Layer 1" xmlns="http://www.w3.org/2000/svg" viewBox="0 0 256.664 336.671"><title>icon-location</title><circle cx="129.304" cy="128.224" r="75.776" fill="#fff"/><path d="M129.598.006C58.573-.681-.002 57.306-.002 128.332a127.715 127.715 0 0 0 19.444 67.934q7.387 11.814 14.212 23.963l79.22 108.586a19.132 19.132 0 0 0 30.912 0l79.195-108.538c4.756-8.491 9.832-16.793 14.909-25.095A128.349 128.349 0 0 0 129.598.006m-1.266 193.26a65.421 65.421 0 1 1 65.421-65.421 65.421 65.421 0 0 1-65.421 65.421z" fill="#f15958"/></svg>