<svg data-name="Layer 1" xmlns="http://www.w3.org/2000/svg" viewBox="0 0 32.641 35.319"><title>icon-bear</title><path d="M16.32 18.957c3.56 0 6.455-2.119 6.455-4.724a4.055 4.055 0 0 0-1.545-3.059 1.4 1.4 0 0 0 .324-.891 1.41 1.41 0 0 0-2.759-.413 8.642 8.642 0 0 0-4.95 0 1.409 1.409 0 1 0-2.435 1.3 4.055 4.055 0 0 0-1.545 3.059c0 2.609 2.895 4.728 6.455 4.728zm0-8.009c2.719 0 5.016 1.5 5.016 3.285 0 1.619-1.906 3-4.3 3.235v-2.8c.959-.118 1.8-.487 1.8-1.258 0-.962-1.3-1.305-2.518-1.305s-2.517.343-2.517 1.305c0 .771.838 1.14 1.8 1.258v2.8c-2.39-.238-4.3-1.616-4.3-3.235.003-1.781 2.3-3.285 5.019-3.285z" fill="#ff5756"/><path d="M31.283 25.038a4.83 4.83 0 0 0-2.708-1.147 4.021 4.021 0 0 0-.055-2.123 9.423 9.423 0 0 0-2.946-4.493 10.063 10.063 0 0 0 2.491-6.57 9.886 9.886 0 0 0-.114-1.5 4.361 4.361 0 1 0-4.168-6.769 12.642 12.642 0 0 0-14.925 0 4.362 4.362 0 1 0-4.169 6.77 9.886 9.886 0 0 0-.114 1.5 10.057 10.057 0 0 0 2.492 6.57 9.333 9.333 0 0 0-1.141 1.138 9.134 9.134 0 0 0-1.8 3.35 4.021 4.021 0 0 0-.055 2.123 4.836 4.836 0 0 0-2.709 1.147A4.184 4.184 0 0 0 0 28.224a6.848 6.848 0 0 0 2.52 4.944 8.377 8.377 0 0 0 5.4 2.133 5.379 5.379 0 0 0 2.853-.764 13.961 13.961 0 0 0 5.519.782c1.857-.046 4.177-.094 5.564-.783a5.376 5.376 0 0 0 2.854.765 8.379 8.379 0 0 0 5.4-2.133 6.848 6.848 0 0 0 2.53-4.944 4.184 4.184 0 0 0-1.357-3.186zm-4.153-2.9a2.039 2.039 0 0 1-.066 1.672c-.015.018-.02.04-.033.059a8.107 8.107 0 0 0-2.314.624c-.135-.521-.3-1.128-.363-1.331a14.162 14.162 0 0 0-.774-1.906 13.413 13.413 0 0 0-.911-1.561 11.725 11.725 0 0 0 1.906-1.381 8.068 8.068 0 0 1 2.555 3.83zM6.109 8.037a.721.721 0 0 0-.546-.251h-.066a2.668 2.668 0 0 1-.254.011 2.921 2.921 0 1 1 2.72-3.983.719.719 0 0 0 1.145.276 10.874 10.874 0 0 1 7.212-2.65 10.877 10.877 0 0 1 7.213 2.649.72.72 0 0 0 1.145-.275 2.921 2.921 0 1 1 2.719 3.989c-.087 0-.173 0-.257-.012a.7.7 0 0 0-.61.25.72.72 0 0 0-.152.641 8.372 8.372 0 0 1 .248 2.025c0 5.11-4.623 9.266-10.306 9.266S6.014 15.814 6.014 10.705a8.372 8.372 0 0 1 .248-2.025.722.722 0 0 0-.153-.643zm-.6 14.1a8.065 8.065 0 0 1 2.557-3.823 11.738 11.738 0 0 0 1.9 1.388 13.5 13.5 0 0 0-.911 1.56 14.374 14.374 0 0 0-.774 1.9c-.066.2-.227.809-.363 1.332a8.133 8.133 0 0 0-2.313-.624c-.013-.019-.018-.041-.033-.059a2.039 2.039 0 0 1-.061-1.67zm-2.036 9.949a5.5 5.5 0 0 1-2.034-3.872 2.735 2.735 0 0 1 .881-2.11 3.678 3.678 0 0 1 2.511-.864 6.954 6.954 0 0 1 4.447 1.8 5.491 5.491 0 0 1 2.042 3.874 2.729 2.729 0 0 1-.884 2.11c-1.606 1.447-4.727 1.028-6.963-.938zm8.482 1.373a4.269 4.269 0 0 0 .8-2.561 6.853 6.853 0 0 0-2.523-4.942 8.79 8.79 0 0 0-1.005-.755c.142-.554.361-1.39.427-1.593a12.986 12.986 0 0 1 .7-1.712 12.082 12.082 0 0 1 .911-1.544 12.609 12.609 0 0 0 10.116 0 11.889 11.889 0 0 1 .911 1.544 12.734 12.734 0 0 1 .7 1.712c.065.2.284 1.036.427 1.594a8.741 8.741 0 0 0-1 .754 6.852 6.852 0 0 0-2.524 4.941 4.262 4.262 0 0 0 .8 2.561 17.723 17.723 0 0 1-4.352.422 17.537 17.537 0 0 1-4.388-.421zm17.212-1.373c-2.236 1.967-5.358 2.386-6.958.933a2.729 2.729 0 0 1-.884-2.11 5.492 5.492 0 0 1 2.034-3.871 6.951 6.951 0 0 1 4.446-1.8 3.678 3.678 0 0 1 2.515.866 2.735 2.735 0 0 1 .885 2.11 5.5 5.5 0 0 1-2.038 3.872z" fill="#ff5756"/></svg>