<svg data-name="Layer 1" xmlns="http://www.w3.org/2000/svg" viewBox="0 0 35.17 35.641"><title>icon-rocket</title><path d="M16.885 35.641a.719.719 0 0 1-.72-.739l.179-7.042-.259-.248-.646 2.476a1.235 1.235 0 0 1-.888.887 2.129 2.129 0 0 1-1.924-.513L5.293 23.43a2.144 2.144 0 0 1-.591-1.947 1.2 1.2 0 0 1 .883-.887l2.363-.79-.144-.138-7.03.48a.721.721 0 0 1-.765-.8C.567 14.117 1.716 8.494 8.261 8.033a12.833 12.833 0 0 1 4.221.678c.493.135 1 .274 1.493.387a52.121 52.121 0 0 1 4.528-5.6C22-.152 27.625-1.017 33.185 1.239l.026.011a.9.9 0 0 1 .112.056.812.812 0 0 1 .319.329c.032.068.062.137.093.206a14.966 14.966 0 0 1 1.1 9.421.711.711 0 0 1-.052.147 11.09 11.09 0 0 1-2.736 5.069 52.047 52.047 0 0 1-5.4 4.761c.134.49.294.99.45 1.477a12.938 12.938 0 0 1 .856 4.186c-.183 6.559-5.751 7.946-10.957 8.731a.635.635 0 0 1-.111.008zm.9-7.744l-.157 6.181c4.531-.748 8.74-2.084 8.883-7.213a11.792 11.792 0 0 0-.788-3.708c-.1-.317-.206-.641-.3-.966-1.223.934-2.476 1.858-3.716 2.773l-1.725 1.275a.493.493 0 0 1-.042.049.715.715 0 0 1-.257.174q-.983.729-1.898 1.435zM6.091 21.941a.84.84 0 0 0 .2.449l7.336 7.032a.791.791 0 0 0 .456.175l.815-3.126-2.791-2.673-2.99-2.866zm7.014.82l4 3.829 1.178-.885-8.445-8.009-.8 1.162 4 3.833.072.07zm-2.446-6.267l8.787 8.334 5.946-4.466a.76.76 0 0 1 .143-.083 51.924 51.924 0 0 0 5.472-4.8 9.614 9.614 0 0 0 2.316-4.166l-9.738-9.329a9.668 9.668 0 0 0-4.042 2.51 51.947 51.947 0 0 0-4.565 5.676.691.691 0 0 1-.075.142zm-4.667 5.484h-.008zm2.716-12.52c-.116 0-.232 0-.346.012-5.118.36-6.274 4.622-6.828 9.182l6.167-.42q.629-.887 1.273-1.835a.73.73 0 0 1 .3-.437q.586-.862 1.2-1.769c.861-1.276 1.731-2.567 2.612-3.829a63.337 63.337 0 0 1-.98-.263 13.461 13.461 0 0 0-3.398-.641zm16.555-7.86l8.38 8.03a13.929 13.929 0 0 0-1.19-7.13 14.086 14.086 0 0 0-7.19-.9zm-7.321 19.521a3.48 3.48 0 1 1 2.516-1.071 3.466 3.466 0 0 1-2.516 1.071zm0-5.525h-.045a1.985 1.985 0 1 0 .045 0zm5.206.092a3.508 3.508 0 1 1 .076 0zm0-5.526a2.041 2.041 0 1 0 1.413.567 2.037 2.037 0 0 0-1.408-.567z" fill="#b056da"/></svg>