<svg data-name="Layer 1" xmlns="http://www.w3.org/2000/svg" viewBox="0 0 34.718 35.285"><title>icon-letter-blocks</title><path d="M32.857 18.321l-8.326-.064a1.862 1.862 0 0 0 .579-.927l3.179-11.787a1.88 1.88 0 0 0-1.322-2.3L15.182.066a1.878 1.878 0 0 0-2.3 1.322l-3.18 11.784a1.879 1.879 0 0 0 1.322 2.3l1.266.342-11.125 4.567A1.873 1.873 0 0 0 .142 22.83l4.634 11.293a1.873 1.873 0 0 0 2.449 1.02l11.291-4.635c.058-.024.109-.058.164-.087l-.015 1.872a1.878 1.878 0 0 0 1.861 1.89l12.206.1h.015a1.879 1.879 0 0 0 1.876-1.86l.095-12.206a1.879 1.879 0 0 0-1.861-1.896zm-21.764-4.778l3.178-11.781a.443.443 0 0 1 .422-.321.4.4 0 0 1 .113.015l11.785 3.178a.437.437 0 0 1 .307.535l-3.179 11.786a.434.434 0 0 1-.534.306l-11.786-3.178a.438.438 0 0 1-.306-.54zm6.877 15.63L6.682 33.812a.428.428 0 0 1-.333 0 .433.433 0 0 1-.236-.236L1.474 22.283a.437.437 0 0 1 .238-.57l11.292-4.635a.439.439 0 0 1 .568.239l4.636 11.29a.438.438 0 0 1-.238.57zM14.904 16.77a1.934 1.934 0 0 0-.154-.292l6.5 1.752h-.6a1.847 1.847 0 0 0-1.889 1.862l-.047 5.961zm18.278 15.636a.438.438 0 0 1-.437.433l-12.207-.096a.44.44 0 0 1-.434-.44l.1-12.206a.442.442 0 0 1 .436-.433l12.205.094a.44.44 0 0 1 .434.441z" fill="#b056da"/><path d="M20.646 4.059a.723.723 0 0 0-.758.247L16.064 9.15l-.006.008-2.639 3.344a.72.72 0 0 0 1.131.892l2.351-2.979 3.64.975h.011l.472 3.807a.721.721 0 0 0 .714.631.68.68 0 0 0 .09-.006.719.719 0 0 0 .626-.8L21.168 4.663a.719.719 0 0 0-.522-.604zm-2.774 5.125l2.079-2.634.41 3.3zm12.79 18.188a.718.718 0 0 0-.92.437 4 4 0 0 1-.7 1.246 3.206 3.206 0 0 1-1.006.809 2.615 2.615 0 0 1-2.376 0 3.184 3.184 0 0 1-1.006-.81 4 4 0 0 1-.7-1.245 4.717 4.717 0 0 1 0-3.112 4 4 0 0 1 .705-1.246 3.192 3.192 0 0 1 1-.81 2.626 2.626 0 0 1 2.375 0 3.2 3.2 0 0 1 1.007.812 3.978 3.978 0 0 1 .7 1.245.721.721 0 0 0 1.358-.483 5.432 5.432 0 0 0-.959-1.689 4.633 4.633 0 0 0-1.458-1.172 4.069 4.069 0 0 0-3.67 0 4.614 4.614 0 0 0-1.46 1.169 5.4 5.4 0 0 0-.959 1.689 6.159 6.159 0 0 0 0 4.079 5.429 5.429 0 0 0 .96 1.689 4.61 4.61 0 0 0 1.461 1.17 4.053 4.053 0 0 0 3.669 0 4.612 4.612 0 0 0 1.461-1.169 5.465 5.465 0 0 0 .96-1.69.721.721 0 0 0-.442-.919zm-17.811-2.889a3.331 3.331 0 0 0-.871-.147 2.81 2.81 0 0 0 0-2.042 2.85 2.85 0 0 0-1.72-1.616 3.406 3.406 0 0 0-2.433.066l-3.045 1.228a.727.727 0 0 0-.393.387.716.716 0 0 0-.005.551l1.7 4.208v.013l1.6 3.95a.714.714 0 0 0 .5.424.693.693 0 0 0 .512 0l3.909-1.58a3.492 3.492 0 0 0 1.8-1.594 2.64 2.64 0 0 0-1.551-3.844zm-6.861-1.44l2.373-.958a1.96 1.96 0 0 1 1.408-.045 1.372 1.372 0 0 1 .8 1.978 1.976 1.976 0 0 1-1.043.945l-.054.021-2.32.938zm6.074 5.548l-3.294 1.33-1.077-2.668 2.123-.858 1.171-.474a1.693 1.693 0 0 1 2.236.647 1.693 1.693 0 0 1-1.159 2.018z" fill="#b056da"/></svg>