<svg data-name="Layer 1" xmlns="http://www.w3.org/2000/svg" viewBox="0 0 33.974 34.322"><title>icon-binoculars</title><path d="M25.775 21.492a.72.72 0 1 0 .13 1.433 3.683 3.683 0 0 1 3.993 3.328.72.72 0 0 0 .716.655h.067a.719.719 0 0 0 .651-.782 5.115 5.115 0 0 0-5.557-4.634z" fill="#383838"/><path d="M33.942 25.886a7.673 7.673 0 0 0-.593-2.337L29.602 9.114a6.2 6.2 0 0 0-2.315-3.535.7.7 0 0 0-.01-.188l-.63-2.424A3.578 3.578 0 0 0 23.157 0a3.357 3.357 0 0 0-3.57 3.075v3.171a.606.606 0 0 0 .022.111 4.321 4.321 0 0 0-1.205 2.936v1.2a2.718 2.718 0 0 0-2.858.02V9.296a4.324 4.324 0 0 0-1.206-2.938.658.658 0 0 0 .022-.109l-.015-3.174A3.356 3.356 0 0 0 10.779 0a3.578 3.578 0 0 0-3.492 2.967l-.626 2.425a.684.684 0 0 0-.01.186 6.2 6.2 0 0 0-2.318 3.536l-3.815 14.7a7.732 7.732 0 0 0 7.205 10.508c.236 0 .475-.011.713-.032a7.732 7.732 0 0 0 7.034-7.595 2.764 2.764 0 0 0 3.04 0c0 .2 0 .394.023.594a7.748 7.748 0 0 0 7.7 7.036c.234 0 .47-.011.706-.032a7.745 7.745 0 0 0 7.003-8.407zm-2.855-5.315a7.712 7.712 0 0 0-11.273 1.712l.023-12.987c0-1.836 1.875-3.328 4.173-3.328a4.364 4.364 0 0 1 4.2 3.508zM23.157 1.44a2.253 2.253 0 0 1 2.094 1.891l.375 1.44a5.763 5.763 0 0 0-1.614-.24 6.3 6.3 0 0 0-2.988.741V3.081a1.936 1.936 0 0 1 2.133-1.641zm-7.526 11.449a1.356 1.356 0 0 1 2.711 0 .707.707 0 0 0 .05.248l-.016 8.805a2.71 2.71 0 0 0-2.816.021l-.016-8.748a.707.707 0 0 0 .087-.326zM8.687 3.331a2.254 2.254 0 0 1 2.1-1.888 1.936 1.936 0 0 1 2.12 1.635v2.189a6.306 6.306 0 0 0-2.987-.74 5.757 5.757 0 0 0-1.614.242zm-2.96 6.144a4.364 4.364 0 0 1 4.2-3.507c2.3 0 4.17 1.492 4.173 3.328l.023 12.925a7.719 7.719 0 0 0-7.084-3.34 7.681 7.681 0 0 0-4.195 1.714zm6.846 21.142a6.292 6.292 0 0 1-10.921-5.636.711.711 0 0 0 .108-.221l.136-.523a6.287 6.287 0 0 1 5.27-3.922c.194-.018.388-.026.581-.026a6.3 6.3 0 0 1 4.826 10.328zm4.414-4.908a1.356 1.356 0 1 1 1.355-1.355 1.357 1.357 0 0 1-1.355 1.355zm9.82 7.147a6.3 6.3 0 0 1-1.139-12.541c.193-.018.384-.025.574-.025a6.307 6.307 0 0 1 5.745 3.752l.186.718a.714.714 0 0 0 .161.289 6.26 6.26 0 0 1-5.53 7.807z" fill="#383838"/><path d="M7.273 21.492a.72.72 0 1 0 .13 1.433 3.688 3.688 0 0 1 3.993 3.328.722.722 0 0 0 .717.655h.066a.72.72 0 0 0 .652-.782 5.115 5.115 0 0 0-5.558-4.631z" fill="#383838"/></svg>