<svg data-name="Layer 1" xmlns="http://www.w3.org/2000/svg" viewBox="0 0 29.402 33.846"><title>icon-apple</title><path d="M25.241 17.388a9.233 9.233 0 0 1-.716 4.205 21.273 21.273 0 0 1-2.876 5.078 8.836 8.836 0 0 1-6.963 3.169.72.72 0 0 0 0 1.439 10.264 10.264 0 0 0 8.082-3.7 22.586 22.586 0 0 0 3.077-5.41 10.681 10.681 0 0 0 .83-4.862.737.737 0 0 0-.762-.674.72.72 0 0 0-.672.755z" fill="#ff5756"/><path d="M26.48 9.621c-2.362-2.27-5.626-2.586-9.19-.887-.351.167-.679.336-.985.494-.334.172-.66.34-.944.465a17.3 17.3 0 0 0-.672-4.04 8.436 8.436 0 0 0 4.293 1.187h.311a8.407 8.407 0 0 0 6.424-3.36.721.721 0 0 0-.06-.936 8.415 8.415 0 0 0-12.28.234 7.412 7.412 0 0 0-1.9-2 .719.719 0 1 0-.828 1.173c2.21 1.558 3.12 4.849 3.269 7.718-.273-.123-.578-.279-.894-.442s-.634-.326-.984-.493a8.464 8.464 0 0 0-7.162-.494 8.357 8.357 0 0 0-4.429 5.456c-1.666 5.5 1.642 11.455 4.275 15.457a10.958 10.958 0 0 0 8.85 4.678q.332.014.661.014a13.347 13.347 0 0 0 10.345-4.7 27.873 27.873 0 0 0 3.791-6.663c1.912-4.457 1.099-9.986-1.891-12.861zM19.362 1.44a6.977 6.977 0 0 1 4.794 1.67 6.962 6.962 0 0 1-4.916 2.286 6.987 6.987 0 0 1-4.791-1.666 6.956 6.956 0 0 1 4.913-2.29zm7.687 20.475a26.528 26.528 0 0 1-3.59 6.331 11.992 11.992 0 0 1-9.815 4.146 9.537 9.537 0 0 1-7.715-4.03c-2.474-3.761-5.59-9.329-4.1-14.249a6.953 6.953 0 0 1 3.632-4.555 5.527 5.527 0 0 1 2.25-.458 8.705 8.705 0 0 1 3.707.934c.335.16.649.322.943.473a5.514 5.514 0 0 0 2.288.833h.01a5.49 5.49 0 0 0 2.3-.833c.293-.151.607-.313.943-.473 3.028-1.443 5.646-1.227 7.573.625 2.588 2.481 3.261 7.321 1.574 11.256z" fill="#ff5756"/></svg>