<svg data-name="Layer 1" xmlns="http://www.w3.org/2000/svg" viewBox="0 0 35.172 34.554"><title>icon-train</title><path d="M10.429 23.968a5.293 5.293 0 1 0 5.293 5.293 5.3 5.3 0 0 0-5.293-5.293zm0 9.146a3.854 3.854 0 1 1 3.857-3.853 3.858 3.858 0 0 1-3.857 3.853zm11.523-9.146a5.293 5.293 0 1 0 5.293 5.293 5.3 5.3 0 0 0-5.293-5.293zm0 9.146a3.854 3.854 0 1 1 3.854-3.853 3.857 3.857 0 0 1-3.854 3.853z" fill="#3bbcff"/><path d="M28.521 9.413V5.695l2.456-4.638A.721.721 0 0 0 30.34 0h-9.7a.721.721 0 0 0-.637 1.057l2.456 4.637v3.7h-5.773v-5.48a.721.721 0 0 0-.72-.72h-3.187L.723 3.152A.751.751 0 0 0 0 3.869a.72.72 0 0 0 .717.723l2.463.009v9.951H.72a.72.72 0 0 0-.72.73l.121 9.408a.72.72 0 0 0 .72.711H3.18v1.061a.72.72 0 1 0 1.439 0V4.634h8.154l2.47.009v5.472a.721.721 0 0 0 .72.72h7.216a.721.721 0 0 0 .72-.72v-4.6a.73.73 0 0 0-.083-.338l-1.98-3.736h7.308l-1.98 3.736a.721.721 0 0 0-.083.337v4.6a.72.72 0 0 0 .72.72h.207a5.732 5.732 0 0 1 5.725 5.724v2.509a5.728 5.728 0 0 1-5.5 5.714l-.656-1.114a.72.72 0 1 0-1.24.731l5.349 9.085a.717.717 0 0 0 .621.354.709.709 0 0 0 .364-.1.718.718 0 0 0 .255-.985l-3.889-6.6a7.169 7.169 0 0 0 6.134-7.082v-2.511a7.173 7.173 0 0 0-6.65-7.146zM1.552 23.961l-.1-7.968H3.18v7.968z" fill="#3bbcff"/><path d="M12.477 18.42a.72.72 0 0 0 .719-.721V8.677a.719.719 0 0 0-.719-.72h-5.3a.72.72 0 0 0-.72.72v9.019a.72.72 0 0 0 .72.721zM7.898 9.4h3.859v7.577H7.898zm2.531 17.318a2.544 2.544 0 1 0 2.543 2.544 2.546 2.546 0 0 0-2.543-2.544zm0 3.647a1.1 1.1 0 1 1 1.1-1.1 1.106 1.106 0 0 1-1.1 1.1zm11.523-3.647a2.544 2.544 0 1 0 2.543 2.544 2.547 2.547 0 0 0-2.543-2.544zm0 3.647a1.1 1.1 0 1 1 1.1-1.1 1.105 1.105 0 0 1-1.1 1.1z" fill="#3bbcff"/></svg>