<svg data-name="Layer 1" xmlns="http://www.w3.org/2000/svg" viewBox="0 0 34.369 35.176"><title>icon-footprints</title><path d="M25.584 7.669a5.692 5.692 0 0 0-5.241-.069 4.486 4.486 0 0 0-2.026 3.834 13.319 13.319 0 0 0 .118 2.338c.223 2.011.454 4.09-1.876 7.671a5.5 5.5 0 0 0-.682 4.455 3.214 3.214 0 0 0 1.736 2.122 7.793 7.793 0 0 0 3.01.878 3.278 3.278 0 0 0 1.349-.287 5.972 5.972 0 0 0 3.164-3.506 9.21 9.21 0 0 1 2.416-3.44l.461-.4c1.491-1.292 2.779-2.407 3.215-3.9 1.107-3.809-1.161-7.705-5.644-9.696zm4.257 9.289c-.317 1.087-1.4 2.026-2.775 3.215l-.464.4a10.709 10.709 0 0 0-2.774 3.915 4.614 4.614 0 0 1-2.444 2.8c-.87.386-1.737.044-3.228-.609a1.823 1.823 0 0 1-.895-1.2 4.02 4.02 0 0 1 .508-3.254c2.612-4.014 2.34-6.46 2.1-8.617a12.128 12.128 0 0 1-.112-2.088 3.186 3.186 0 0 1 1.334-2.689 3.007 3.007 0 0 1 1.575-.4 5.837 5.837 0 0 1 2.331.552c3.157 1.405 5.88 4.417 4.844 7.975z" fill="#3bbcff"/><path d="M33.984 8.2a1.783 1.783 0 0 0-2.027-.827 1.889 1.889 0 0 0 .087-1.049 2.131 2.131 0 0 0-.83-1.292 2.23 2.23 0 0 0-1.619-.5 2.206 2.206 0 0 0-1.411-1.739 2.575 2.575 0 0 0-1.479-.154 1.726 1.726 0 0 0-.317.113 2.542 2.542 0 0 0-1.59-2.535 2.288 2.288 0 0 0-3.181 1.231 5.192 5.192 0 0 0-.23 2.316 2.338 2.338 0 0 0 1.259 2.082 1.717 1.717 0 0 0 .621.113 2.694 2.694 0 0 0 1.6-.623 4.272 4.272 0 0 0 .466-.417 3.75 3.75 0 0 0 .061.54 2.012 2.012 0 0 0 1.147 1.618 1.681 1.681 0 0 0 .605.111 2.141 2.141 0 0 0 .845-.212 1.814 1.814 0 0 0 .634 1.536 1.69 1.69 0 0 0 1.026.323 2.61 2.61 0 0 0 1.108-.276 1.935 1.935 0 0 0-.048 2.015 1.8 1.8 0 0 0 1.511.68 2.493 2.493 0 0 0 1.42-.426 1.743 1.743 0 0 0 .71-1.248 1.987 1.987 0 0 0-.368-1.38zm-9.117-5.119a2.785 2.785 0 0 1-.876 1.107c-.379.29-.693.364-.829.309-.075-.028-.266-.3-.34-.9a3.859 3.859 0 0 1 .145-1.628.731.731 0 0 1 .726-.525 1.675 1.675 0 0 1 .59.127 1.153 1.153 0 0 1 .584 1.51zm2.734 2.492a.731.731 0 0 1-.543.155c-.04-.015-.173-.173-.244-.543a2.021 2.021 0 0 1 .032-.98.213.213 0 0 1 .175-.157.632.632 0 0 1 .136-.014 1.492 1.492 0 0 1 .506.108.685.685 0 0 1 .48.827 1.466 1.466 0 0 1-.542.604zm2.956 1.387c-.233.314-.893.523-1.065.4a1.656 1.656 0 0 1 .2-1.324c.047-.063.078-.068.1-.071h.032a.993.993 0 0 1 .529.233.7.7 0 0 1 .275.416.435.435 0 0 1-.071.346zm2.241 2.7a1.084 1.084 0 0 1-.571.15.642.642 0 0 1-.334-.063 1.484 1.484 0 0 1 .5-1 .077.077 0 0 1 .045-.014c.119 0 .309.222.375.312a.554.554 0 0 1 .109.378.321.321 0 0 1-.124.237zM15.404 20.338a13.234 13.234 0 0 0 .358-2.313 4.484 4.484 0 0 0-1.619-4.022 5.685 5.685 0 0 0-5.222-.472C4.257 15.05 1.6 18.688 2.31 22.588c.278 1.532 1.443 2.774 2.793 4.211l.42.448a9.215 9.215 0 0 1 2.048 3.67 5.968 5.968 0 0 0 2.786 3.813 3.317 3.317 0 0 0 1.7.443 9.269 9.269 0 0 0 2.738-.595 3.2 3.2 0 0 0 1.908-1.92 5.5 5.5 0 0 0-.219-4.5c-1.953-3.798-1.509-5.842-1.08-7.82zm-.039 11.77a1.829 1.829 0 0 1-1.05 1.109c-1.515.485-2.413.736-3.238.264a4.626 4.626 0 0 1-2.142-3.036 10.706 10.706 0 0 0-2.351-4.179l-.424-.452c-1.246-1.326-2.227-2.369-2.43-3.481-.663-3.645 2.354-6.359 5.639-7.428a6.246 6.246 0 0 1 1.921-.332 3.235 3.235 0 0 1 1.981.582 3.185 3.185 0 0 1 1.048 2.811 12.044 12.044 0 0 1-.326 2.066c-.461 2.122-.983 4.526 1.2 8.788a4.023 4.023 0 0 1 .172 3.288z" fill="#3bbcff"/><path d="M3.522 15.888a1.782 1.782 0 0 0 .26-1.74c-.025-.086-.06-.17-.092-.254a2.509 2.509 0 0 0 1.27.385 1.638 1.638 0 0 0 .849-.227 1.806 1.806 0 0 0 .787-1.449 2.029 2.029 0 0 0 1 .295 1.662 1.662 0 0 0 .433-.057 2.294 2.294 0 0 0 1.421-2.03 2.944 2.944 0 0 0 2.14 1.263 1.717 1.717 0 0 0 .441-.057 2.338 2.338 0 0 0 1.465-1.942 5.192 5.192 0 0 0 .011-2.327 2.138 2.138 0 0 0-1.232-1.48 2.757 2.757 0 0 0-1.806-.072 2.461 2.461 0 0 0-1.537 1.237 2.667 2.667 0 0 0-.3 1.116 2.4 2.4 0 0 0-1.79-.135 2.2 2.2 0 0 0-1.583 1.59 1.667 1.667 0 0 0-.312-.054 2.376 2.376 0 0 0-1.349.378 2.048 2.048 0 0 0-.978 2.254 1.481 1.481 0 0 0-1.012-.1 2.264 2.264 0 0 0-1.092.709 1.879 1.879 0 0 0 .061 2.649 2.493 2.493 0 0 0 1.373.57 2.5 2.5 0 0 0 .256.014 1.717 1.717 0 0 0 1.316-.536zm6.684-7.777a1.021 1.021 0 0 1 .64-.519 1.813 1.813 0 0 1 .469-.068 1.015 1.015 0 0 1 .394.071.7.7 0 0 1 .4.527 3.833 3.833 0 0 1-.024 1.634c-.135.6-.352.844-.43.865-.4.113-1.33-.76-1.551-1.584a1.258 1.258 0 0 1 .102-.922zm-2.99 1.694a1.608 1.608 0 0 1 .415-.061.6.6 0 0 1 .293.059.209.209 0 0 1 .1.149c.14.516-.159 1.436-.367 1.493-.285.077-.887-.442-1-.868a.691.691 0 0 1 .559-.768zm-2.882 1.766a1.121 1.121 0 0 1 .515-.179h.021a.141.141 0 0 1 .136.087 1.664 1.664 0 0 1 .062 1.337c-.2.11-.821-.167-1.02-.5a.58.58 0 0 1 .286-.745zm-2.793 3.2a.448.448 0 0 1 .049-.609.827.827 0 0 1 .375-.274.1.1 0 0 1 .028-.006c.013 0 .023.007.045.027a1.566 1.566 0 0 1 .409 1.021.513.513 0 0 1-.351.049 1.079 1.079 0 0 1-.555-.211z" fill="#3bbcff"/></svg>