<svg id="Layer_1" data-name="Layer 1" xmlns="http://www.w3.org/2000/svg" viewBox="0 0 29.402 33.846"><title>icon-apple</title><path d="M28.292,19.048a9.233,9.233,0,0,1-.716,4.205A21.273,21.273,0,0,1,24.7,28.331,8.836,8.836,0,0,1,17.737,31.5a.72.72,0,0,0,0,1.439h0a10.264,10.264,0,0,0,8.082-3.7,22.586,22.586,0,0,0,3.077-5.41,10.681,10.681,0,0,0,.83-4.862.737.737,0,0,0-.762-.674A.72.72,0,0,0,28.292,19.048Z" transform="translate(-3.051 -1.66)" style="fill:#ff5756"/><path d="M29.531,11.281c-2.362-2.27-5.626-2.586-9.19-.887-.351.167-.679.336-.985.494-.334.172-.66.34-.944.465a17.3,17.3,0,0,0-.672-4.04A8.436,8.436,0,0,0,22.033,8.5c.1,0,.207,0,.311,0A8.407,8.407,0,0,0,28.768,5.14a.721.721,0,0,0-.06-.936,8.415,8.415,0,0,0-12.28.234,7.412,7.412,0,0,0-1.9-2A.719.719,0,1,0,13.7,3.611c2.21,1.558,3.12,4.849,3.269,7.718-.273-.123-.578-.279-.894-.442s-.634-.326-.984-.493A8.464,8.464,0,0,0,7.929,9.9,8.357,8.357,0,0,0,3.5,15.356c-1.666,5.5,1.642,11.455,4.275,15.457a10.958,10.958,0,0,0,8.85,4.678q.332.014.661.014a13.347,13.347,0,0,0,10.345-4.7,27.873,27.873,0,0,0,3.791-6.663C33.334,19.685,32.521,14.156,29.531,11.281ZM22.413,3.1A6.977,6.977,0,0,1,27.207,4.77a6.962,6.962,0,0,1-4.916,2.286A6.987,6.987,0,0,1,17.5,5.39,6.956,6.956,0,0,1,22.413,3.1ZM30.1,23.575a26.528,26.528,0,0,1-3.59,6.331,11.992,11.992,0,0,1-9.815,4.146,9.537,9.537,0,0,1-7.715-4.03c-2.474-3.761-5.59-9.329-4.1-14.249a6.953,6.953,0,0,1,3.632-4.555,5.527,5.527,0,0,1,2.25-.458,8.705,8.705,0,0,1,3.707.934c.335.16.649.322.943.473A5.514,5.514,0,0,0,17.7,13h.01a5.49,5.49,0,0,0,2.3-.833c.293-.151.607-.313.943-.473,3.028-1.443,5.646-1.227,7.573.625C31.114,14.8,31.787,19.64,30.1,23.575Z" transform="translate(-3.051 -1.66)" style="fill:#ff5756"/></svg>