<svg id="Layer_1" data-name="Layer 1" xmlns="http://www.w3.org/2000/svg" viewBox="0 0 32.641 35.319"><title>icon-bear</title><path d="M18,19.243c3.56,0,6.455-2.119,6.455-4.724A4.055,4.055,0,0,0,22.91,11.46a1.4,1.4,0,0,0,.324-.891,1.41,1.41,0,0,0-2.759-.413,8.642,8.642,0,0,0-4.95,0,1.409,1.409,0,1,0-2.435,1.3,4.055,4.055,0,0,0-1.545,3.059C11.545,17.124,14.44,19.243,18,19.243Zm0-8.009c2.719,0,5.016,1.5,5.016,3.285,0,1.619-1.906,3-4.3,3.235v-2.8c.959-.118,1.8-.487,1.8-1.258,0-.962-1.3-1.305-2.518-1.305s-2.517.343-2.517,1.305c0,.771.838,1.14,1.8,1.258v2.8c-2.39-.238-4.3-1.616-4.3-3.235C12.984,12.738,15.281,11.234,18,11.234Z" transform="translate(-1.68 -0.286)" style="fill:#ff5756"/><path d="M32.963,25.324a4.83,4.83,0,0,0-2.708-1.147,4.021,4.021,0,0,0-.055-2.123,9.423,9.423,0,0,0-2.946-4.493,10.063,10.063,0,0,0,2.491-6.57,9.886,9.886,0,0,0-.114-1.5,4.361,4.361,0,1,0-4.168-6.769,12.642,12.642,0,0,0-14.925,0A4.362,4.362,0,1,0,6.369,9.492a9.886,9.886,0,0,0-.114,1.5,10.057,10.057,0,0,0,2.492,6.57A9.333,9.333,0,0,0,7.606,18.7a9.134,9.134,0,0,0-1.8,3.35,4.021,4.021,0,0,0-.055,2.123,4.836,4.836,0,0,0-2.709,1.147A4.184,4.184,0,0,0,1.68,28.51,6.848,6.848,0,0,0,4.2,33.454a8.377,8.377,0,0,0,5.4,2.133,5.379,5.379,0,0,0,2.853-.764,13.961,13.961,0,0,0,5.519.782c1.857-.046,4.177-.094,5.564-.783a5.376,5.376,0,0,0,2.854.765,8.379,8.379,0,0,0,5.4-2.133A6.848,6.848,0,0,0,34.32,28.51,4.184,4.184,0,0,0,32.963,25.324Zm-4.153-2.9a2.039,2.039,0,0,1-.066,1.672c-.015.018-.02.04-.033.059a8.107,8.107,0,0,0-2.314.624c-.135-.521-.3-1.128-.363-1.331a14.162,14.162,0,0,0-.774-1.906,13.413,13.413,0,0,0-.911-1.561A11.725,11.725,0,0,0,26.255,18.6a8.068,8.068,0,0,1,2.555,3.83ZM7.789,8.323a.721.721,0,0,0-.546-.251c-.022,0-.044,0-.066,0-.084.008-.168.011-.254.011A2.921,2.921,0,1,1,9.643,4.1a.719.719,0,0,0,1.145.276A10.874,10.874,0,0,1,18,1.726a10.877,10.877,0,0,1,7.213,2.649A.72.72,0,0,0,26.358,4.1a2.921,2.921,0,1,1,2.719,3.989c-.087,0-.173,0-.257-.012a.7.7,0,0,0-.61.25.72.72,0,0,0-.152.641,8.372,8.372,0,0,1,.248,2.025c0,5.11-4.623,9.266-10.306,9.266S7.694,16.1,7.694,10.991a8.372,8.372,0,0,1,.248-2.025A.722.722,0,0,0,7.789,8.323Zm-.6,14.1A8.065,8.065,0,0,1,9.746,18.6a11.738,11.738,0,0,0,1.9,1.388,13.5,13.5,0,0,0-.911,1.56,14.374,14.374,0,0,0-.774,1.9c-.066.2-.227.809-.363,1.332a8.133,8.133,0,0,0-2.313-.624c-.013-.019-.018-.041-.033-.059A2.039,2.039,0,0,1,7.191,22.427ZM5.153,32.372A5.5,5.5,0,0,1,3.119,28.5,2.735,2.735,0,0,1,4,26.39a3.678,3.678,0,0,1,2.511-.864,6.954,6.954,0,0,1,4.447,1.8A5.491,5.491,0,0,1,13,31.2a2.729,2.729,0,0,1-.884,2.11C10.51,34.757,7.389,34.338,5.153,32.372Zm8.482,1.373a4.269,4.269,0,0,0,.8-2.561,6.853,6.853,0,0,0-2.523-4.942,8.79,8.79,0,0,0-1.005-.755c.142-.554.361-1.39.427-1.593a12.986,12.986,0,0,1,.7-1.712,12.082,12.082,0,0,1,.911-1.544,12.609,12.609,0,0,0,10.116,0,11.889,11.889,0,0,1,.911,1.544,12.734,12.734,0,0,1,.7,1.712c.065.2.284,1.036.427,1.594a8.741,8.741,0,0,0-1,.754,6.852,6.852,0,0,0-2.524,4.941,4.262,4.262,0,0,0,.8,2.561,17.723,17.723,0,0,1-4.352.422A17.537,17.537,0,0,1,13.635,33.745Zm17.212-1.373c-2.236,1.967-5.358,2.386-6.958.933a2.729,2.729,0,0,1-.884-2.11,5.492,5.492,0,0,1,2.034-3.871,6.951,6.951,0,0,1,4.446-1.8A3.678,3.678,0,0,1,32,26.39a2.735,2.735,0,0,1,.885,2.11A5.5,5.5,0,0,1,30.847,32.372Z" transform="translate(-1.68 -0.286)" style="fill:#ff5756"/></svg>