<svg id="Layer_1" data-name="Layer 1" xmlns="http://www.w3.org/2000/svg" viewBox="0 0 35.172 34.554"><title>icon-train</title><path d="M10.843,24.691a5.293,5.293,0,1,0,5.293,5.293A5.3,5.3,0,0,0,10.843,24.691Zm0,9.146A3.854,3.854,0,1,1,14.7,29.984,3.858,3.858,0,0,1,10.843,33.837Z" transform="translate(-0.414 -0.723)" style="fill:#3bbcff"/><path d="M22.366,24.691a5.293,5.293,0,1,0,5.293,5.293A5.3,5.3,0,0,0,22.366,24.691Zm0,9.146a3.854,3.854,0,1,1,3.854-3.853A3.857,3.857,0,0,1,22.366,33.837Z" transform="translate(-0.414 -0.723)" style="fill:#3bbcff"/><path d="M28.935,10.136V6.418L31.391,1.78A.721.721,0,0,0,30.754.723h-9.7a.721.721,0,0,0-.637,1.057l2.456,4.637v3.7H17.1V4.637a.721.721,0,0,0-.72-.72H13.193L1.137,3.875a.751.751,0,0,0-.723.717.72.72,0,0,0,.717.723l2.463.009v9.951H1.134a.72.72,0,0,0-.72.73l.121,9.408a.72.72,0,0,0,.72.711H3.594v1.061a.72.72,0,1,0,1.439,0V5.357h8.154l2.47.009v5.472a.721.721,0,0,0,.72.72h7.216a.721.721,0,0,0,.72-.72v-4.6A.73.73,0,0,0,24.23,5.9L22.25,2.164h7.308L27.578,5.9a.721.721,0,0,0-.083.337v4.6a.72.72,0,0,0,.72.72h.207a5.732,5.732,0,0,1,5.725,5.724v2.509a5.728,5.728,0,0,1-5.5,5.714l-.656-1.114a.72.72,0,1,0-1.24.731L32.1,34.206a.717.717,0,0,0,.621.354.709.709,0,0,0,.364-.1.718.718,0,0,0,.255-.985l-3.889-6.6a7.169,7.169,0,0,0,6.134-7.082V17.282A7.173,7.173,0,0,0,28.935,10.136ZM1.966,24.684l-.1-7.968H3.594v7.968Z" transform="translate(-0.414 -0.723)" style="fill:#3bbcff"/><path d="M12.891,19.143a.72.72,0,0,0,.719-.721V9.4a.719.719,0,0,0-.719-.72h-5.3a.72.72,0,0,0-.72.72v9.019a.72.72,0,0,0,.72.721Zm-4.579-9.02h3.859V17.7H8.312Z" transform="translate(-0.414 -0.723)" style="fill:#3bbcff"/><path d="M10.843,27.441a2.544,2.544,0,1,0,2.543,2.544A2.546,2.546,0,0,0,10.843,27.441Zm0,3.647a1.1,1.1,0,1,1,1.1-1.1A1.106,1.106,0,0,1,10.843,31.088Z" transform="translate(-0.414 -0.723)" style="fill:#3bbcff"/><path d="M22.366,27.441a2.544,2.544,0,1,0,2.543,2.544A2.547,2.547,0,0,0,22.366,27.441Zm0,3.647a1.1,1.1,0,1,1,1.1-1.1A1.105,1.105,0,0,1,22.366,31.088Z" transform="translate(-0.414 -0.723)" style="fill:#3bbcff"/></svg>