<svg id="Layer_1" data-name="Layer 1" xmlns="http://www.w3.org/2000/svg" viewBox="0 0 256.664 336.671"><title>icon-location</title><circle cx="129.304" cy="128.224" r="75.776" style="fill:#fff"/><path d="M143.687,11.006c-71.025-.687-129.6,57.3-129.6,128.326a127.715,127.715,0,0,0,19.444,67.934q7.387,11.814,14.212,23.963l79.22,108.586a19.132,19.132,0,0,0,30.912,0L237.07,231.277c4.756-8.491,9.832-16.793,14.909-25.095A128.349,128.349,0,0,0,143.687,11.006m-1.266,193.26a65.421,65.421,0,1,1,65.421-65.421A65.421,65.421,0,0,1,142.421,204.266Z" transform="translate(-14.089 -11)" style="fill:#f15958"/></svg>