<svg id="Layer_1" data-name="Layer 1" xmlns="http://www.w3.org/2000/svg" viewBox="0 0 35.246 34.04"><title>icon-family</title><path d="M35.552,18.8l-2-8.355c-.377-1.575-3.192-2.113-5.488-2.287a3.948,3.948,0,1,0-4.462.027c-2.152.193-4.951.74-5.229,2.271l-.456,2.5a3.6,3.6,0,0,0-.979.185l-.811-1.459c-.472-1.14-2.055-1.74-3.783-1.977l.018-.01a3.947,3.947,0,1,0-3.908.039c-1.6.251-3.045.837-3.5,1.907L.607,18.763a.7.7,0,0,0-.056.113A2.116,2.116,0,0,0,1.776,21.6a2.247,2.247,0,0,0,2.638-1.063l1.622-2.207-1.83,7.585a.683.683,0,0,0,.526.829l1.375.282-.143,5.505A2.3,2.3,0,0,0,7.112,34.6a2.931,2.931,0,0,0,2.858.015,2.413,2.413,0,0,0,.51-.389,2.368,2.368,0,0,0,.5.377,3.054,3.054,0,0,0,2.97-.037,2.543,2.543,0,0,0,.354-.249,2.2,2.2,0,0,0,.384.287,3.064,3.064,0,0,0,2.906.016,2.153,2.153,0,0,0,.339-.237,2.245,2.245,0,0,0,.328.228,3.18,3.18,0,0,0,3.017-.038,2.246,2.246,0,0,0,.395-.295,2.675,2.675,0,0,0,.384.274,3.348,3.348,0,0,0,1.687.43,3.621,3.621,0,0,0,1.785-.457,2.721,2.721,0,0,0,.554-.416,2.564,2.564,0,0,0,.513.384,3.468,3.468,0,0,0,3.332-.019,2.248,2.248,0,0,0,1.168-2.024l-.15-14.035.373,1.113c.58,1.525,1.406,1.958,2,2.054a1.954,1.954,0,0,0,1.819-.755A2.118,2.118,0,0,0,35.552,18.8ZM23.233,4.915a2.58,2.58,0,1,1,2.579,2.579A2.591,2.591,0,0,1,23.233,4.915Zm-2.8,14.444a3.634,3.634,0,0,0,.807-.976l-.01,1.163C20.972,19.471,20.705,19.409,20.436,19.359Zm-2.353-.482a2.285,2.285,0,1,1,2.285-2.285A2.288,2.288,0,0,1,18.083,18.877ZM7.8,6.29a2.582,2.582,0,1,1,2.58,2.579A2.59,2.59,0,0,1,7.8,6.29Zm5.917,26.543a.946.946,0,0,1-.457.557,1.69,1.69,0,0,1-1.6.029.966.966,0,0,1-.493-.9V27.01a.682.682,0,1,0-1.364,0v5.507a.982.982,0,0,1-.506.914A1.562,1.562,0,0,1,7.8,33.424a.932.932,0,0,1-.475-.865l.159-6.068a.683.683,0,0,0-.546-.687L5.7,25.551l2.46-10.2a.683.683,0,0,0-1.214-.565L3.314,19.731c-.261.356-.657.748-1.053.595a.759.759,0,0,1-.451-.914l4.341-7.1a.621.621,0,0,0,.055-.113c.234-.612,1.9-1.244,4.281-1.244h0c2.442,0,4.147.646,4.384,1.27a.646.646,0,0,0,.041.089l.833,1.5a3.6,3.6,0,0,0-.062,5.514c-1.222.207-2.511.645-2.928,1.574l-1.521,3.972a1.628,1.628,0,0,0,.01,1.327,1.908,1.908,0,0,0,1.179,1.023h0a3.051,3.051,0,0,0,.37.1l-.682,1.736a.681.681,0,0,0,.518.922l1.2.208Zm7.636-3.895a.683.683,0,0,0-.575.7l.109,2.86c0,.075,0,.148.008.22l.008.2c0,.079,0,.29-.318.48a1.835,1.835,0,0,1-1.646.028.55.55,0,0,1-.322-.518v-3.3a.683.683,0,0,0-1.365,0v3.3a.566.566,0,0,1-.333.527,1.688,1.688,0,0,1-1.536-.006.527.527,0,0,1-.3-.429,2.482,2.482,0,0,0,.043-.492.657.657,0,0,0-.018-.147l.12-2.718a.683.683,0,0,0-.565-.7l-.961-.166,2.116-5.389a.682.682,0,1,0-1.27-.5l-1.08,2.747a.68.68,0,0,0-.153.182c-.074.127-.119.176-.117.185a1.244,1.244,0,0,1-.343-.08h0a.551.551,0,0,1-.348-.278.274.274,0,0,1,0-.229.221.221,0,0,0,.012-.027l.006-.016,1.51-3.947c.172-.382,1.627-.911,3.914-.912h0c2.347,0,3.841.541,4.006.908l1.73,4.281a.264.264,0,0,1,0,.231.549.549,0,0,1-.351.28c-.213.07-.249.082-.594-.394a.681.681,0,0,0-.105-.115l-1.2-2.811a.682.682,0,0,0-1.255.535l2.273,5.341Zm12.724-8.971a.649.649,0,0,1-.543.268c-.323-.052-.674-.5-.929-1.165l-1.733-5.179a.683.683,0,0,0-1.33.223l.19,18.353a.9.9,0,0,1-.494.83,2.138,2.138,0,0,1-1.961.013.885.885,0,0,1-.493-.775c0-.025,0-.051,0-.076a.426.426,0,0,0,0-.05l.008-9.815a.682.682,0,0,0-.682-.684h0a.682.682,0,0,0-.683.682l-.007,9.9v.026a1,1,0,0,1-.568.821,2.284,2.284,0,0,1-2.1.034.929.929,0,0,1-.492-.747l0-.149a.317.317,0,0,0,0-.044l-.085-2.243,1.36-.215a.682.682,0,0,0,.521-.941l-.617-1.45a2.272,2.272,0,0,0,.314-.077,1.915,1.915,0,0,0,1.181-1.025,1.612,1.612,0,0,0,.009-1.322L23.2,20.881a1.847,1.847,0,0,0-.605-.711l.056-6.056a.682.682,0,0,0-1.329-.223l-.219.652a3.651,3.651,0,0,0-1.829-1.386l.447-2.459c.059-.323,1.742-1.141,5.56-1.246,4.382-.118,6.821.775,6.949,1.309L34.25,19.2A.821.821,0,0,1,34.072,19.967Z" transform="translate(-0.413 -0.943)" style="fill:#ff5756"/></svg>