<svg id="Layer_1" data-name="Layer 1" xmlns="http://www.w3.org/2000/svg" viewBox="0 0 34.718 35.285"><title>icon-letter-blocks</title><path d="M33.375,18.678h0l-8.326-.064a1.862,1.862,0,0,0,.579-.927L28.807,5.9a1.88,1.88,0,0,0-1.322-2.3h0L15.7.423a1.878,1.878,0,0,0-2.3,1.322L10.22,13.529a1.879,1.879,0,0,0,1.322,2.3l1.266.342L1.683,20.738A1.873,1.873,0,0,0,.66,23.187L5.294,34.48A1.873,1.873,0,0,0,7.743,35.5l11.291-4.635c.058-.024.109-.058.164-.087l-.015,1.872a1.878,1.878,0,0,0,1.861,1.89l12.206.1h.015a1.879,1.879,0,0,0,1.876-1.86l.095-12.206A1.879,1.879,0,0,0,33.375,18.678ZM11.611,13.9,14.789,2.119a.443.443,0,0,1,.422-.321.4.4,0,0,1,.113.015L27.109,4.991a.437.437,0,0,1,.307.535L24.237,17.312a.434.434,0,0,1-.534.306L11.917,14.44A.438.438,0,0,1,11.611,13.9Zm6.877,15.63L7.2,34.169a.428.428,0,0,1-.333,0,.433.433,0,0,1-.236-.236L1.992,22.64a.437.437,0,0,1,.238-.57l11.292-4.635a.439.439,0,0,1,.568.239l4.636,11.29A.438.438,0,0,1,18.488,29.534ZM15.422,17.127a1.934,1.934,0,0,0-.154-.292l6.5,1.752-.6,0a1.847,1.847,0,0,0-1.889,1.862l-.047,5.961ZM33.7,32.763a.438.438,0,0,1-.437.433h0L21.056,33.1a.44.44,0,0,1-.434-.44l.1-12.206a.442.442,0,0,1,.436-.433h0l12.205.094a.44.44,0,0,1,.434.441Z" transform="translate(-0.518 -0.357)" style="fill:#b056da"/><path d="M21.164,4.416a.723.723,0,0,0-.758.247L16.582,9.507l-.006.008-2.639,3.344a.72.72,0,0,0,1.131.892l2.351-2.979,3.64.975h.011l.472,3.807a.721.721,0,0,0,.714.631.68.68,0,0,0,.09-.006.719.719,0,0,0,.626-.8L21.686,5.02A.719.719,0,0,0,21.164,4.416ZM18.39,9.541l2.079-2.634.41,3.3Z" transform="translate(-0.518 -0.357)" style="fill:#b056da"/><path d="M31.18,27.729a.718.718,0,0,0-.92.437,4,4,0,0,1-.7,1.246,3.206,3.206,0,0,1-1.006.809,2.615,2.615,0,0,1-2.376,0,3.184,3.184,0,0,1-1.006-.81,4,4,0,0,1-.7-1.245,4.717,4.717,0,0,1,0-3.112,4,4,0,0,1,.705-1.246,3.192,3.192,0,0,1,1-.81,2.626,2.626,0,0,1,2.375,0,3.2,3.2,0,0,1,1.007.812,3.978,3.978,0,0,1,.7,1.245.721.721,0,0,0,1.358-.483,5.432,5.432,0,0,0-.959-1.689A4.633,4.633,0,0,0,29.2,21.711a4.069,4.069,0,0,0-3.67,0,4.614,4.614,0,0,0-1.46,1.169,5.4,5.4,0,0,0-.959,1.689,6.159,6.159,0,0,0,0,4.079,5.429,5.429,0,0,0,.96,1.689,4.61,4.61,0,0,0,1.461,1.17,4.053,4.053,0,0,0,3.669,0,4.612,4.612,0,0,0,1.461-1.169,5.465,5.465,0,0,0,.96-1.69A.721.721,0,0,0,31.18,27.729Z" transform="translate(-0.518 -0.357)" style="fill:#b056da"/><path d="M13.369,24.84a3.331,3.331,0,0,0-.871-.147,2.81,2.81,0,0,0,0-2.042,2.85,2.85,0,0,0-1.72-1.616,3.406,3.406,0,0,0-2.433.066L5.3,22.329a.727.727,0,0,0-.393.387.716.716,0,0,0-.005.551l1.7,4.208,0,.007,0,.006,1.6,3.95a.714.714,0,0,0,.5.424.693.693,0,0,0,.512,0l3.909-1.58a3.492,3.492,0,0,0,1.8-1.594,2.64,2.64,0,0,0-1.551-3.844ZM6.508,23.4l2.373-.958a1.96,1.96,0,0,1,1.408-.045,1.372,1.372,0,0,1,.8,1.978,1.976,1.976,0,0,1-1.043.945l-.054.021-2.32.938Zm6.074,5.548-3.294,1.33L8.211,27.61l2.123-.858,1.171-.474a1.693,1.693,0,0,1,2.236.647A1.693,1.693,0,0,1,12.582,28.943Z" transform="translate(-0.518 -0.357)" style="fill:#b056da"/></svg>