<svg id="Layer_1" data-name="Layer 1" xmlns="http://www.w3.org/2000/svg" viewBox="0 0 35.474 35.378"><title>icon-rocking-horse</title><path d="M19.179,35.689a18.677,18.677,0,0,1-5.495-.836C8.669,33.316,4.169,29.712.667,24.429a2.384,2.384,0,0,1-.342-1.867,2.454,2.454,0,0,1,1.164-1.568,2.653,2.653,0,0,1,3.526.785,25.813,25.813,0,0,0,3.107,3.866l1.719-9A1.247,1.247,0,0,0,9.715,15.6c-.455-.645-1.928-.874-3.352-1.1a13.418,13.418,0,0,1-3.97-1.032A2.307,2.307,0,0,1,1.2,11.788,2.369,2.369,0,0,1,1.772,9.75L7.506,3.706a2.554,2.554,0,0,1,.361-.316l.3-1.722A1.638,1.638,0,0,1,10.07.337l.963.169a1.641,1.641,0,0,1,1.331,1.9l-.155.883,1.276.193L13.7,2.273A1.644,1.644,0,0,1,15.6.942l.963.17a1.642,1.642,0,0,1,1.331,1.9l-.447,2.541a1.643,1.643,0,0,1-.1.344c-.024.253-.067.521-.109.784-.032.2-.064.392-.084.573l-.507,4.764a2.055,2.055,0,0,0,.17,1.444c.325.346,1.448.3,2.749.245.832-.034,1.777-.073,2.864-.043,1.547.041,1.547.044,2.16-1.342.137-.308.3-.666.492-1.083a2.778,2.778,0,0,1,1.71-1.381h0a2.585,2.585,0,0,1,2.286.289A5.882,5.882,0,0,1,31.266,14.6a9.755,9.755,0,0,1-.192,3.035.72.72,0,0,1-1.385.068c-.031-.093-.064-.186-.1-.278A6.463,6.463,0,0,0,27,14.834a3.98,3.98,0,0,0,.09,1.808l1.811,9.49a11.022,11.022,0,0,0,1.8-3.289,2.607,2.607,0,0,1,3.229-1.595,2.546,2.546,0,0,1,1.54,1.267,2.381,2.381,0,0,1,.144,1.865,16.485,16.485,0,0,1-7.3,8.831,17.806,17.806,0,0,1-6.9,2.34A18.191,18.191,0,0,1,19.179,35.689ZM2.829,22.071a1.2,1.2,0,0,0-.609.163,1.027,1.027,0,0,0-.492.652.96.96,0,0,0,.14.749c3.315,5,7.546,8.4,12.237,9.841a17.029,17.029,0,0,0,7.131.646,16.35,16.35,0,0,0,6.343-2.152,15.041,15.041,0,0,0,6.668-8.05.952.952,0,0,0-.06-.744,1.11,1.11,0,0,0-.678-.549,1.153,1.153,0,0,0-1.446.676,12.665,12.665,0,0,1-3.094,4.9.719.719,0,0,1-1.213-.377L25.672,16.912c-.145-.754-.583-3.049.868-3.47,1.024-.3,2.381.8,3.326,1.891q-.006-.3-.034-.594a4.569,4.569,0,0,0-1.533-3.38,1.119,1.119,0,0,0-1.033-.141,1.412,1.412,0,0,0-.882.634c-.192.406-.346.754-.479,1.053-.865,1.955-1.174,2.262-3.516,2.2-1.036-.028-1.954.01-2.764.043-1.79.073-3.082.129-3.859-.7a3.076,3.076,0,0,1-.552-2.582L15.722,7.1c.021-.206.057-.427.093-.651.043-.265.089-.535.1-.783a.726.726,0,0,1,.087-.3l.469-2.6a.2.2,0,0,0-.163-.232l-.963-.17a.226.226,0,0,0-.233.163l-.335,1.9a.723.723,0,0,1-.816.587l-2.7-.408a.718.718,0,0,1-.6-.836l.283-1.612a.2.2,0,0,0-.033-.149.2.2,0,0,0-.13-.084L9.82,1.755a.216.216,0,0,0-.232.163L9.229,3.961a.721.721,0,0,1-.393.522.957.957,0,0,0-.284.214L2.816,10.741a.946.946,0,0,0-.2.8.868.868,0,0,0,.424.644,12.408,12.408,0,0,0,3.542.894c1.8.281,3.5.545,4.308,1.689a2.715,2.715,0,0,1,.363,2.143l-1.967,10.3a.719.719,0,0,1-1.187.4,26.169,26.169,0,0,1-4.287-5.041A1.18,1.18,0,0,0,2.829,22.071Z" transform="translate(-0.263 -0.311)" style="fill:#ff5756"/><path d="M19.152,32.176a14.752,14.752,0,0,1-4.343-.66,16.484,16.484,0,0,1-3.265-1.411.719.719,0,0,1-.328-.858l1.8-5.3c.207-.611.837-2.472,2.664-2.472h5.56c1.825,0,2.458,1.861,2.666,2.471L25.9,29.792a.72.72,0,0,1-.358.874,14.049,14.049,0,0,1-4.613,1.4A14.666,14.666,0,0,1,19.152,32.176Zm-6.377-3.042a14.917,14.917,0,0,0,2.455,1,13.192,13.192,0,0,0,5.519.5,12.608,12.608,0,0,0,3.577-.989l-1.78-5.237c-.451-1.325-.934-1.5-1.3-1.5h-5.56c-.369,0-.852.17-1.3,1.5Z" transform="translate(-0.263 -0.311)" style="fill:#ff5756"/><path d="M8.9,9.822A1.423,1.423,0,1,1,10.257,8.4,1.391,1.391,0,0,1,8.9,9.822Zm.086-1.437-.172.032.086,0A.107.107,0,0,0,8.986,8.385Z" transform="translate(-0.263 -0.311)" style="fill:#ff5756"/></svg>