<svg id="Layer_1" data-name="Layer 1" xmlns="http://www.w3.org/2000/svg" viewBox="0 0 35.455 34.134"><title>icon-school</title><path d="M18.184,17.742a3.111,3.111,0,1,1,3.111-3.11A3.113,3.113,0,0,1,18.184,17.742Zm0-4.781a1.671,1.671,0,1,0,1.671,1.671A1.672,1.672,0,0,0,18.184,12.961Z" transform="translate(-0.457 -0.643)" style="fill:#3bbcff"/><path d="M35.8,11.283,29.372.981a.721.721,0,0,0-.611-.338H7.608A.721.721,0,0,0,7,.981L.566,11.283a.72.72,0,0,0,.611,1.1H3.043V33.337H1.8a.72.72,0,1,0,0,1.439H34.574a.72.72,0,1,0,0-1.439H33.326V12.384h1.866a.72.72,0,0,0,.611-1.1ZM21.212,33.337H15.157v-7.4a3.033,3.033,0,0,1,6.055,0Zm1.44,0v-7.4a4.471,4.471,0,0,0-8.935,0v7.4H4.483V12.384h8.241a.722.722,0,0,0,.495-.2L18.184,7.48l4.966,4.707a.723.723,0,0,0,.5.2h8.241V33.337Zm1.28-22.393L18.679,5.965a.721.721,0,0,0-.991,0l-5.251,4.979H2.475L8.007,2.083H28.362l5.532,8.861Z" transform="translate(-0.457 -0.643)" style="fill:#3bbcff"/><path d="M28.837,23.738H25.752a.72.72,0,0,0-.72.72v5.5a.72.72,0,0,0,.72.72h3.085a.72.72,0,0,0,.72-.72v-5.5A.721.721,0,0,0,28.837,23.738Zm-.72,5.5H26.472V25.178h1.645Z" transform="translate(-0.457 -0.643)" style="fill:#3bbcff"/><path d="M10.617,23.738H7.532a.721.721,0,0,0-.72.72v5.5a.72.72,0,0,0,.72.72h3.085a.72.72,0,0,0,.72-.72v-5.5A.72.72,0,0,0,10.617,23.738Zm-.72,5.5H8.252V25.178H9.9Z" transform="translate(-0.457 -0.643)" style="fill:#3bbcff"/><path d="M10.617,15.243H7.532a.72.72,0,0,0-.72.72v4.363a.72.72,0,0,0,.72.72h3.085a.72.72,0,0,0,.72-.72V15.963A.72.72,0,0,0,10.617,15.243ZM9.9,19.606H8.252V16.683H9.9Z" transform="translate(-0.457 -0.643)" style="fill:#3bbcff"/><path d="M28.837,15.243H25.752a.72.72,0,0,0-.72.72v4.363a.72.72,0,0,0,.72.72h3.085a.72.72,0,0,0,.72-.72V15.963A.72.72,0,0,0,28.837,15.243Zm-.72,4.363H26.472V16.683h1.645Z" transform="translate(-0.457 -0.643)" style="fill:#3bbcff"/></svg>