<svg id="Layer_1" data-name="Layer 1" xmlns="http://www.w3.org/2000/svg" viewBox="0 0 35.17 35.641"><title>icon-rocket</title><path d="M17.3,35.863a.719.719,0,0,1-.72-.739l.179-7.042-.259-.248-.646,2.476a1.235,1.235,0,0,1-.888.887,2.129,2.129,0,0,1-1.924-.513L5.708,23.652a2.144,2.144,0,0,1-.591-1.947A1.2,1.2,0,0,1,6,20.818l2.363-.79-.144-.138-7.03.48a.721.721,0,0,1-.765-.8C.982,14.339,2.131,8.716,8.676,8.255a12.833,12.833,0,0,1,4.221.678c.493.135,1,.274,1.493.387a52.121,52.121,0,0,1,4.528-5.6C22.415.07,28.04-.795,33.6,1.461l.026.011a.9.9,0,0,1,.112.056.812.812,0,0,1,.319.329c.032.068.062.137.093.206a14.966,14.966,0,0,1,1.1,9.421.711.711,0,0,1-.052.147A11.09,11.09,0,0,1,32.462,16.7a52.047,52.047,0,0,1-5.4,4.761c.134.49.294.99.45,1.477a12.938,12.938,0,0,1,.856,4.186c-.183,6.559-5.751,7.946-10.957,8.731A.635.635,0,0,1,17.3,35.863Zm.9-7.744L18.043,34.3c4.531-.748,8.74-2.084,8.883-7.213a11.792,11.792,0,0,0-.788-3.708c-.1-.317-.206-.641-.3-.966-1.223.934-2.476,1.858-3.716,2.773q-.882.651-1.725,1.275a.493.493,0,0,1-.042.049.715.715,0,0,1-.257.174Q19.115,27.413,18.2,28.119ZM6.506,22.163a.84.84,0,0,0,.2.449l7.336,7.032a.791.791,0,0,0,.456.175l.815-3.126L12.522,24.02l0,0L9.532,21.154Zm7.014.82,4,3.829,1.178-.885-8.445-8.009-.8,1.162,4,3.833.072.07Zm-2.446-6.267,8.787,8.334,5.946-4.466a.76.76,0,0,1,.143-.083,51.924,51.924,0,0,0,5.472-4.8,9.614,9.614,0,0,0,2.316-4.166L24,2.206a9.668,9.668,0,0,0-4.042,2.51,51.947,51.947,0,0,0-4.565,5.676.691.691,0,0,1-.075.142ZM6.407,22.2l-.008,0ZM9.123,9.68c-.116,0-.232,0-.346.012-5.118.36-6.274,4.622-6.828,9.182l6.167-.42q.629-.887,1.273-1.835a.73.73,0,0,1,.3-.437q.586-.862,1.2-1.769c.861-1.276,1.731-2.567,2.612-3.829-.329-.085-.657-.174-.98-.263A13.461,13.461,0,0,0,9.123,9.68ZM25.678,1.82l8.38,8.03a13.929,13.929,0,0,0-1.19-7.13A14.086,14.086,0,0,0,25.678,1.82ZM18.357,21.341a3.48,3.48,0,1,1,2.516-1.071A3.466,3.466,0,0,1,18.357,21.341Zm0-5.525h-.045a1.985,1.985,0,1,0,.045,0Zm5.206.092a3.508,3.508,0,1,1,.076,0Zm0-5.526a2.041,2.041,0,1,0,1.413.567A2.037,2.037,0,0,0,23.568,10.382Z" transform="translate(-0.415 -0.222)" style="fill:#b056da"/></svg>