<svg id="Layer_1" data-name="Layer 1" xmlns="http://www.w3.org/2000/svg" viewBox="0 0 35.172 35.24"><title>icon-bike</title><path d="M28.746,21.886c-.2,0-.406.014-.607.031a13.631,13.631,0,0,0-2-3.738l2.137-3.242c1.314.578,3.294.992,4.515.132a3.263,3.263,0,0,0,1.4-3.283,2.712,2.712,0,0,0-2.455-1.955c-.076-.011-7.76-.865-8.52,1.155a1.647,1.647,0,0,0,.047,1.328c.512,1.054,2.11,1.559,3.394,1.966l.273.086-1.708,2.591c-2.476-2.862-8.613-5.142-12.487-5.542L13.4,5.078a1.439,1.439,0,0,1,.073-.316A1.508,1.508,0,0,1,14.8,3.512a5.385,5.385,0,0,1,1.163-.168,1.762,1.762,0,0,0,.333.861,1.954,1.954,0,0,0,1.808.736l4.081.14A1.744,1.744,0,0,0,23.9,3.563l.214-1.187a1.581,1.581,0,0,0-.365-1.307A2.186,2.186,0,0,0,22.023.38L19.674.419A3.412,3.412,0,0,0,16.419,1.9a7.1,7.1,0,0,0-2,.225A2.872,2.872,0,0,0,12.11,4.289a2.728,2.728,0,0,0-.142.607L10.859,15.464c-.112,0-.221-.017-.333-.017a10.145,10.145,0,1,0,1.764.165l.29-2.765c4.2.411,10.608,3.132,12.04,5.718.006.011.019.015.026.026a.905.905,0,0,0,.045.08A12.151,12.151,0,0,1,26.707,22.2a6.865,6.865,0,1,0,2.039-.31Zm-4.191-10.2a.161.161,0,0,1-.016-.122c.661-.45,4.4-.692,6.981-.308.5.075,1.128.286,1.265.863a1.877,1.877,0,0,1-.826,1.774c-.69.487-2.455.135-3.57-.5l-.025-.014h0l-.014-.008a9.08,9.08,0,0,0-1.262-.458C26.286,12.653,24.8,12.182,24.555,11.685ZM17.422,2.969c.624-.9.9-1.087,2.275-1.11l2.351-.039a.824.824,0,0,1,.6.181.156.156,0,0,1,.046.118l-.214,1.187c-.025.139-.128.337-.25.335L18.1,3.5h-.025A.664.664,0,0,0,18,3.5a.6.6,0,0,1-.549-.153A.417.417,0,0,1,17.422,2.969Zm1.751,22.564a8.647,8.647,0,1,1-8.647-8.646c.062,0,.121.008.182.01l-.068.649c-.038,0-.075-.006-.114-.006a8.006,8.006,0,1,0,1.546.153l.068-.649A8.656,8.656,0,0,1,19.173,25.533ZM9.992,23.724a1.9,1.9,0,1,0,1.431.15l.5-4.741a6.549,6.549,0,1,1-1.432-.151ZM28.746,34.18a5.427,5.427,0,0,1-1.6-10.614c.065.237.128.482.187.738a4.631,4.631,0,1,0,1.424-.238q-.085-.378-.18-.732c.055,0,.109-.008.165-.008a5.427,5.427,0,1,1,0,10.854Zm-.938-7.065a1.894,1.894,0,1,0,1.429-.185c-.055-.489-.12-.953-.193-1.4a3.236,3.236,0,1,1-1.428.184Q27.726,26.378,27.808,27.115Z" transform="translate(-0.44 -0.38)" style="fill:#3bbcff"/></svg>