<svg id="Layer_1" data-name="Layer 1" xmlns="http://www.w3.org/2000/svg" viewBox="0 0 26.132 34.658"><title>icon-questionmark</title><path d="M16.787,35.329a4.866,4.866,0,1,1,4.865-4.866A4.872,4.872,0,0,1,16.787,35.329Zm0-8.292a3.426,3.426,0,1,0,3.426,3.426A3.43,3.43,0,0,0,16.787,27.037Zm3.8-1.867H13a.721.721,0,0,1-.72-.72v-.227a11.222,11.222,0,0,1,.516-3.735,8.31,8.31,0,0,1,1.551-2.621,47.683,47.683,0,0,1,4.635-4.174c1.293-1.055,1.92-1.992,1.92-2.87A2.629,2.629,0,0,0,20.131,8.8,3.321,3.321,0,0,0,17.8,8.072a3.773,3.773,0,0,0-2.787,1.115,5.749,5.749,0,0,0-1.319,3.2.719.719,0,0,1-.8.6L5.1,12.025a.718.718,0,0,1-.624-.812,12.359,12.359,0,0,1,3.6-7.446c2.133-2.054,5.448-3.1,9.855-3.1A14.668,14.668,0,0,1,26.286,2.83,8.9,8.9,0,0,1,30.6,10.61,7.53,7.53,0,0,1,29.488,14.5a19.3,19.3,0,0,1-4.553,4.578,12.164,12.164,0,0,0-3.025,3.069A5.31,5.31,0,0,0,21.3,24.5.721.721,0,0,1,20.585,25.17Zm-6.858-1.44h6.2a6.279,6.279,0,0,1,.715-2.274,13.2,13.2,0,0,1,3.4-3.509,18.024,18.024,0,0,0,4.208-4.184,6.122,6.122,0,0,0,.913-3.153,7.555,7.555,0,0,0-3.684-6.588,13.286,13.286,0,0,0-7.542-1.91c-4.021,0-7,.9-8.857,2.692a10.74,10.74,0,0,0-3.059,5.884l6.374.789a6.5,6.5,0,0,1,1.589-3.3A5.167,5.167,0,0,1,17.8,6.632a4.691,4.691,0,0,1,3.322,1.113,4.042,4.042,0,0,1,1.225,3.078c0,1.338-.8,2.641-2.446,3.982a44.256,44.256,0,0,0-4.463,4.007,6.894,6.894,0,0,0-1.284,2.167A9,9,0,0,0,13.727,23.73Z" transform="translate(-4.471 -0.671)" style="fill:#b056da"/></svg>