<svg id="Layer_1" data-name="Layer 1" xmlns="http://www.w3.org/2000/svg" viewBox="0 0 33.974 34.322">
<defs>
    <style>
      .cls-1 {
        fill: #ffffff;
      }
      .cls-2 {
        fill-opacity: .1;
      }
    </style>
  </defs>
<title>icon-binoculars</title>
<path class="cls-1 cls-2" d="M26.788,22.361a.719.719,0,1,0,.13,1.433,3.683,3.683,0,0,1,3.993,3.328.72.72,0,0,0,.716.655l.067,0a.719.719,0,0,0,.651-.782A5.115,5.115,0,0,0,26.788,22.361Z" transform="translate(-1.013 -0.869)" style="fill:#383838"/>
<path class="cls-1 cls-2" d="M34.955,26.755a7.673,7.673,0,0,0-.593-2.337L30.615,9.983A6.2,6.2,0,0,0,28.3,6.448a.7.7,0,0,0-.01-.188l-.63-2.424A3.578,3.578,0,0,0,24.17.869,3.357,3.357,0,0,0,20.6,3.944L20.6,7.115a.606.606,0,0,0,.022.111,4.321,4.321,0,0,0-1.205,2.936l0,1.2a2.718,2.718,0,0,0-2.858.02l0-1.217a4.324,4.324,0,0,0-1.206-2.938.658.658,0,0,0,.022-.109L15.36,3.944A3.356,3.356,0,0,0,11.792.869,3.578,3.578,0,0,0,8.3,3.836L7.674,6.261a.684.684,0,0,0-.01.186A6.2,6.2,0,0,0,5.346,9.983l-3.815,14.7A7.732,7.732,0,0,0,8.736,35.191c.236,0,.475-.011.713-.032a7.732,7.732,0,0,0,7.034-7.595,2.764,2.764,0,0,0,3.04,0c0,.2,0,.394.023.594a7.748,7.748,0,0,0,7.7,7.036c.234,0,.47-.011.706-.032A7.745,7.745,0,0,0,34.955,26.755ZM32.1,21.44a7.712,7.712,0,0,0-11.273,1.712l.023-12.987c0-1.836,1.875-3.328,4.173-3.328a4.364,4.364,0,0,1,4.2,3.508ZM24.17,2.309A2.253,2.253,0,0,1,26.264,4.2l.375,1.44A5.763,5.763,0,0,0,25.025,5.4a6.3,6.3,0,0,0-2.988.741l0-2.191A1.936,1.936,0,0,1,24.17,2.309ZM16.644,13.758a1.356,1.356,0,0,1,2.711,0,.707.707,0,0,0,.05.248l-.016,8.805a2.71,2.71,0,0,0-2.816.021l-.016-8.748A.707.707,0,0,0,16.644,13.758ZM9.7,4.2a2.254,2.254,0,0,1,2.1-1.888A1.936,1.936,0,0,1,13.92,3.947l0,2.189a6.306,6.306,0,0,0-2.987-.74,5.757,5.757,0,0,0-1.614.242ZM6.74,10.344a4.364,4.364,0,0,1,4.2-3.507c2.3,0,4.17,1.492,4.173,3.328l.023,12.925a7.719,7.719,0,0,0-7.084-3.34,7.681,7.681,0,0,0-4.195,1.714Zm6.846,21.142A6.292,6.292,0,0,1,2.665,25.85a.711.711,0,0,0,.108-.221l.136-.523a6.287,6.287,0,0,1,5.27-3.922c.194-.018.388-.026.581-.026a6.3,6.3,0,0,1,4.826,10.328ZM18,26.578a1.356,1.356,0,1,1,1.355-1.355A1.357,1.357,0,0,1,18,26.578Zm9.82,7.147a6.3,6.3,0,0,1-1.139-12.541c.193-.018.384-.025.574-.025A6.307,6.307,0,0,1,33,24.911l.186.718a.714.714,0,0,0,.161.289,6.26,6.26,0,0,1-5.53,7.807Z" transform="translate(-1.013 -0.869)" style="fill:#383838"/>
<path class="cls-1 cls-2" d="M8.286,22.361a.719.719,0,1,0,.13,1.433,3.688,3.688,0,0,1,3.993,3.328.722.722,0,0,0,.717.655q.033,0,.066,0a.72.72,0,0,0,.652-.782,5.115,5.115,0,0,0-5.558-4.631Z" transform="translate(-1.013 -0.869)" style="fill:#383838"/>
</svg>
