<svg id="Layer_1" data-name="Layer 1" xmlns="http://www.w3.org/2000/svg" viewBox="0 0 35.122 31.827"><title>icon-hearts</title><path d="M22.978,33.914a.671.671,0,0,1-.522-.248L20.212,30.9l-.81,1.019a.671.671,0,0,1-.93.119L5.349,22.18a10.975,10.975,0,0,1-4.6-11.625A8.408,8.408,0,0,1,7.838,3.934c2.788-.337,5.95,1.453,7.852,3.609,1.283-2.514,3.929-5.057,6.675-5.394a8.315,8.315,0,0,1,7.47,3.031A10.646,10.646,0,0,1,31.871,14.5a6.2,6.2,0,0,1,3.435,4.135,7.846,7.846,0,0,1-3.065,8.349l-8.854,6.8A.674.674,0,0,1,22.978,33.914Zm-2.244-4.5,2.353,2.9,8.336-6.4a6.521,6.521,0,0,0,2.586-6.928,4.737,4.737,0,0,0-3.962-3.609C28.376,15.16,26.239,16.566,25.3,18a.683.683,0,0,1-.639.3.674.674,0,0,1-.554-.435c-.6-1.629-2.368-3.512-4.041-3.718h0a4.672,4.672,0,0,0-4.686,2.643,6.339,6.339,0,0,0,1,7.254l4.35,5.356ZM8.522,5.237A4.246,4.246,0,0,0,8,5.268,7.094,7.094,0,0,0,2.054,10.88,9.649,9.649,0,0,0,6.139,21.092l12.618,9.482.587-.74-4-4.925a7.752,7.752,0,0,1-1.157-8.75,5.987,5.987,0,0,1,6.038-3.347h0a6.96,6.96,0,0,1,4.653,3.56,6.837,6.837,0,0,1,5.332-2.332c.126.015.25.035.373.058a9.282,9.282,0,0,0-1.779-8.054,6.992,6.992,0,0,0-6.276-2.56C19.98,3.8,17.35,6.624,16.491,9.07a.672.672,0,0,1-1.19.156C13.926,7.207,10.974,5.237,8.522,5.237Z" transform="translate(-0.439 -2.086)" style="fill:#3bbcff"/></svg>