<svg id="Layer_1" data-name="Layer 1" xmlns="http://www.w3.org/2000/svg" viewBox="0 0 31.131 35.173"><title>icon-pencil-pen</title><path d="M33.7,8.479a.724.724,0,0,0-.358-.421l-1.807-.926,1.239-2.41a.721.721,0,0,0-.312-.97L28.729,1.837a.721.721,0,0,0-.969.312L26.241,5.106a.627.627,0,0,0-.068.086.619.619,0,0,0-.03.1L20.732,15.825h-.105L20.714,7.6a.713.713,0,0,0-.071-.317l-2.22-4.657-.038-1.595a.718.718,0,0,0-.719-.7h-.017a.72.72,0,0,0-.7.737L16.972,2.2a.625.625,0,0,0-.046.079L14.751,7.524A.727.727,0,0,0,14.7,7.8v8.025H13.663L9.12,7.762A.726.726,0,0,0,8.9,7.523L3.735,3.971a.721.721,0,0,0-1.122.687l.831,6.323a.742.742,0,0,0,.09.266L6.21,15.883a.7.7,0,0,0-.255.174.72.72,0,0,0-.19.545L6.858,30.545H6.636a.719.719,0,0,0-.719.72v3.517a.719.719,0,0,0,.719.72H26.562a.72.72,0,0,0,.72-.72V31.265a.72.72,0,0,0-.72-.72H26.34L27.434,16.6a.7.7,0,0,0-.405-.7l3.851-7.49,1.168.6-3.4,6.6a.719.719,0,1,0,1.279.659l3.727-7.236A.721.721,0,0,0,33.7,8.479ZM28.713,3.447l2.455,1.258-.911,1.771L27.8,5.218ZM18.393,15.825,18.3,8.838l.961-.049-.073,7.036Zm-.757-11.5,1.447,3.033L16.32,7.5Zm-1.5,4.626.727-.037.092,6.913h-.819ZM7.841,15.825,5.385,11.571l.832-.538,2.852,4.792Zm2.905,0L7.441,10.273c0-.009-.013-.013-.019-.021l1.061-.687,3.528,6.26ZM7.634,8.4,4.8,10.235,4.252,6.074ZM25.843,34.063H7.356V31.985H25.843ZM8.3,30.545,7.261,17.266H25.938L24.9,30.545ZM25.45,15.825h-3.1L27.144,6.5,29.6,7.756Z" transform="translate(-2.607 -0.329)" style="fill:#3ab54a"/></svg>