<svg data-name="Layer 1" xmlns="http://www.w3.org/2000/svg" viewBox="0 0 784.62 790.694"><title>pattern-shapes</title><path d="M38.548 639.251a23.694 23.694 0 1 1 7.244 32.716 23.695 23.695 0 0 1-7.244-32.716z" fill="none"/><path d="M58.51 678.086a26.1 26.1 0 1 1 22.03-12.073 26.012 26.012 0 0 1-22.03 12.073zm.045-47.394a21.293 21.293 0 1 0 11.421 3.34 21.215 21.215 0 0 0-11.425-3.34z" fill="#e94544"/><path d="M738.549 639.251a23.694 23.694 0 1 1 7.243 32.716 23.693 23.693 0 0 1-7.243-32.716z" fill="none"/><path d="M758.51 678.086a26.1 26.1 0 1 1 22.029-12.073 26.018 26.018 0 0 1-22.029 12.073zm.045-47.394a21.293 21.293 0 1 0 11.421 3.34 21.217 21.217 0 0 0-11.425-3.34zM303.353 256.297l3.952-28.6 24.327 2.468 3.419-24.212 24.328 2.468 3.418-24.212 4.389.532-3.951 28.6-24.325-2.468-3.419 24.212-24.327-2.468-3.419 24.212z" fill="#e94544"/><path d="M104.199 269.811c.946 3.388 11.745 43.679 12.62 47.087-3.407-.875-43.7-11.668-47.088-12.614 2.461-2.514 31.954-32.012 34.468-34.473z" fill="none"/><path d="M120.16 320.238l-3.939-1.011c-3.545-.91-43.633-11.649-47.137-12.627l-3.916-1.093 2.844-2.905c2.57-2.625 31.915-31.973 34.505-34.51l2.9-2.844 1.094 3.916c.984 3.523 11.728 43.611 12.634 47.135zm-45.812-17.187c8.993 2.426 30.086 8.077 39.091 10.471-2.4-9-8.049-30.093-10.477-39.089-6.597 6.57-22.037 22.011-28.614 28.618z" fill="#e94544"/><path d="M704.158 541.943c3.941-.154 50.685-1.5 54.628-1.568-1.837 3.49-24.046 44.642-25.956 48.093-2.103-3.335-26.637-43.146-28.672-46.525z" fill="none"/><path d="M732.965 593.19l-2.169-3.439c-2.054-3.257-26.728-43.3-28.7-46.568l-2.1-3.484 4.064-.158c3.821-.151 50.834-1.5 54.677-1.571l4.066-.074-1.894 3.6c-1.8 3.422-24.139 44.812-25.98 48.138zm-24.6-48.977c5.388 8.782 18.9 30.712 24.329 39.478a17489.64 17489.64 0 0 0 22.025-40.808c-10.304.275-36.055 1.014-46.355 1.33z" fill="#e94544"/><path d="M4.158 541.943c3.941-.154 50.685-1.5 54.628-1.568-1.837 3.49-24.046 44.642-25.955 48.093-2.105-3.335-26.639-43.146-28.673-46.525z" fill="none"/><path d="M32.966 593.19l-2.169-3.439c-2.037-3.23-26.713-43.27-28.7-46.569l-2.1-3.484 4.064-.158c3.823-.151 50.836-1.5 54.678-1.571l4.066-.074-1.894 3.6c-1.784 3.389-24.121 44.779-25.979 48.138zm-24.6-48.977a17905.92 17905.92 0 0 0 24.329 39.478 17435.92 17435.92 0 0 0 22.024-40.808c-10.309.275-36.056 1.014-46.355 1.33zm232.593 118.46c-12.154 0-22.933-5.884-28.581-13.286l3.823-2.918c6.338 8.3 20.257 14.368 34.6 9.884s22.33-17.4 22.808-27.834l4.8.221c-.554 12.108-9.723 27.059-26.177 32.2a37.741 37.741 0 0 1-11.273 1.733z" fill="#e94544"/><path d="M537.565 415.463c-3.331 1.012-34.344 10.446-37.674 11.459l-11.459-37.673c3.33-1.014 34.344-10.447 37.674-11.459l11.459 37.673z" fill="none"/><path d="M498.29 429.922l-12.858-42.271 2.3-.7 37.678-11.462 2.3-.7 12.859 42.273zm-6.858-39.071l10.059 33.073 33.074-10.06-10.055-33.074z" fill="#e94544"/><path d="M657.866 690.014c1.7 3.733 21.326 48.19 22.942 51.956-4.08-.4-52.4-5.626-56.466-6.11 2.385-3.334 31.068-42.562 33.524-45.846z" fill="none"/><path d="M684.621 744.758l-4.047-.394c-4-.392-52.6-5.649-56.516-6.116l-4.036-.481 2.364-3.306c2.32-3.244 31.17-42.7 33.555-45.886l2.434-3.258 1.681 3.7c1.659 3.655 21.4 48.367 22.962 52zM628.71 733.93c10.583 1.167 37.639 4.1 48.237 5.22-4.281-9.75-15.273-34.642-19.6-44.385a21126.267 21126.267 0 0 0-28.637 39.165zm-4.557-81.179l-9.382-27.5 23.017-8.8-7.886-23.345 23.019-8.8-7.887-23.346 4.16-1.5 9.383 27.5-23.018 8.8 7.886 23.345-23.018 8.8 7.886 23.345z" fill="#e94544"/><path d="M81.041 123.67a22.243 22.243 0 1 1-22.372-22.114 22.244 22.244 0 0 1 22.372 22.114z" fill="none"/><path d="M58.795 148.451a24.648 24.648 0 0 1-.141-49.295h.146a24.65 24.65 0 0 1 .141 49.3zm.005-44.486h-.117a19.838 19.838 0 0 0 .112 39.676h.115a19.839 19.839 0 0 0-.113-39.677z" fill="#e94544"/><path d="M781.04 123.67a22.243 22.243 0 1 1-22.372-22.114 22.243 22.243 0 0 1 22.372 22.114z" fill="none"/><path d="M758.795 148.451a24.648 24.648 0 0 1-.141-49.295h.146a24.65 24.65 0 0 1 .141 49.3zm0-44.486h-.118a19.838 19.838 0 0 0 .113 39.676h.118a19.839 19.839 0 0 0-.113-39.677z" fill="#e94544"/><path d="M171.31 379.171a22.152 22.152 0 1 1 15.873-27.009 22.152 22.152 0 0 1-15.873 27.009z" fill="none"/><path d="M165.729 382.292a24.6 24.6 0 1 1 6.188-.794 24.553 24.553 0 0 1-6.188.794zm.031-44.315a19.753 19.753 0 1 0 4.948 38.866 19.75 19.75 0 0 0-4.948-38.866zm70.932 78.385l24.462 1.586-.585 20.086 20.048 1.371-.585 20.086 20.047 1.371-.215 4.416-24.463-1.587.585-20.085-20.047-1.372.585-20.085-20.048-1.372z" fill="#e94544"/><path d="M330.569 384.729a23.863 23.863 0 1 1 10.641 32.027 23.862 23.862 0 0 1-10.641-32.027z" fill="none"/><path d="M351.883 421.696a26.273 26.273 0 1 1 11.79-49.756 26.271 26.271 0 0 1-11.79 49.756zm.038-47.737a21.468 21.468 0 1 0 9.6 2.28 21.365 21.365 0 0 0-9.6-2.28z" fill="#e94544"/><path d="M259.459 543.479c3.446 1.362 44.136 17.946 47.554 19.381-2.9 2.3-37.611 29.251-40.562 31.493-.541-3.666-6.526-47.202-6.992-50.874z" fill="none"/><path d="M264.669 598.728l-.6-4.022c-.528-3.565-6.547-47.349-7-50.924l-.511-4.033 3.78 1.494c3.332 1.317 44.26 18 47.6 19.4l3.75 1.573-3.178 2.528c-2.8 2.224-37.712 29.329-40.6 31.524zm-2.279-51.477c1.311 9.67 4.518 33.006 5.865 42.671 7.723-5.972 26.328-20.418 34.022-26.415a21087.452 21087.452 0 0 0-39.887-16.256z" fill="#e94544"/><path d="M499.91 582.198c-1.838-3.446-18.957-35.538-20.8-38.983l38.984-20.8 20.8 38.983z" fill="none"/><path d="M498.919 585.451l-1.132-2.121a112899.91 112899.91 0 0 0-20.8-38.984l-1.133-2.122 43.228-23.059 23.059 43.227zm-16.552-41.247l18.533 34.74 34.74-18.532-18.53-34.74zm126.38-20.574c-1.832-9.454-10.846-20.16-24.529-22.331s-25.571 5.214-30.241 13.634l-4.205-2.332c5.48-9.885 19.335-18.571 35.2-16.052s26.346 15.07 28.5 26.167zM342.692 707.551c-8.557-8.811-13.233-25.957-5.614-41.676s23.972-22.679 36.192-21.414l-.493 4.783c-10.557-1.085-24.717 5-31.371 18.728s-2.654 28.618 4.736 36.23z" fill="#e94544"/><path d="M163.302 108.706c3.017-1.828 39.02-23.125 42.076-24.889.074 3.527.516 45.355.517 48.883-3.092-1.699-39.538-22.23-42.593-23.994z" fill="none"/><path d="M208.3 136.766l-3.564-1.959c-3.227-1.774-39.488-22.2-42.637-24.019l-3.52-2.033 3.477-2.106c3.146-1.905 38.967-23.095 42.119-24.915l3.521-2.033.086 4.065c.077 3.655.517 45.271.517 48.933zm-40.218-28.115c8.127 4.6 27.231 15.36 35.379 19.93-.082-9.339-.314-31.264-.43-40.6a17423.087 17423.087 0 0 0-34.949 20.67zm322.028 95.836l-20.566 14.474-12.529-16.516-17 11.872-12.525-16.516-16.994 11.872-2.6-3.574 20.569-14.474 12.529 16.516 17-11.872 12.53 16.516 17-11.872z" fill="#e94544"/><path d="M711.415 367.397a21.761 21.761 0 1 1 24.8 18.218 21.762 21.762 0 0 1-24.8-18.218z" fill="none"/><path d="M732.899 388.273a24.169 24.169 0 1 1 23.911-27.822 24.168 24.168 0 0 1-20.231 27.544 24.516 24.516 0 0 1-3.68.278zm.053-43.528a19.583 19.583 0 0 0-2.955.226 19.358 19.358 0 0 0 2.9 38.493 19.573 19.573 0 0 0 2.955-.226 19.356 19.356 0 0 0 16.2-22.062 19.475 19.475 0 0 0-19.1-16.431z" fill="#e94544"/><path d="M11.416 367.397a21.761 21.761 0 1 1 24.8 18.218 21.761 21.761 0 0 1-24.8-18.218z" fill="none"/><path d="M32.899 388.273a24.169 24.169 0 1 1 23.911-27.822 24.168 24.168 0 0 1-20.231 27.544 24.506 24.506 0 0 1-3.68.278zm.054-43.528a19.6 19.6 0 0 0-2.956.226 19.358 19.358 0 0 0 2.9 38.493 19.583 19.583 0 0 0 2.955-.226 19.356 19.356 0 0 0 16.205-22.062 19.473 19.473 0 0 0-19.104-16.431zm43.831 432.213c-10.524-4.932-20.406-18.535-18.931-35s13.619-28.089 24.853-31.07l1.233 4.649c-9.616 2.551-20.018 12.593-21.3 26.85s7.173 25.99 16.182 30.21zm700 0c-10.524-4.932-20.407-18.535-18.93-35s13.618-28.089 24.852-31.07l1.233 4.649c-9.616 2.551-20.019 12.593-21.3 26.85s7.174 25.99 16.182 30.21z" fill="#e94544"/><path d="M614.918 329.584c3.75-.771 48.315-9.453 52.08-10.146-1.207 3.634-15.971 46.569-17.254 50.177-2.543-2.864-32.343-37.116-34.826-40.031z" fill="none"/><path d="M650.648 374.251l-2.7-3.041c-2.678-3.017-32.325-37.093-34.859-40.069l-2.636-3.095 3.983-.819c3.637-.748 48.459-9.48 52.129-10.156l4-.735-1.282 3.858c-1.17 3.523-16.019 46.707-17.27 50.225zm-31.21-43.115c6.572 7.583 22.78 26.214 29.392 33.786 3.285-9.494 11.315-32.846 14.563-42.349-9.865 1.904-34.103 6.626-43.955 8.565zM162.946 444.667l24.518 8.321-6.167 20.563 20.309 6.969-6.167 20.566 20.309 6.969-1.352 4.209-24.518-8.313 6.167-20.567-20.31-6.969 6.168-20.567-20.309-6.968z" fill="#e94544"/><path d="M143.927 219.19l-40.328-8.339c.738-3.564 7.6-36.763 8.342-40.328l40.328 8.342c-.738 3.561-7.604 36.76-8.342 40.325z" fill="none"/><path d="M145.795 222.031l-45.038-9.315 9.316-45.038 45.037 9.316zm-39.354-13.05l35.619 7.37 7.367-35.619-35.617-7.37z" fill="#e94544"/><path d="M410.193 627.667c-.48-3.926-5.7-50.532-6.1-54.466 3.64 1.546 46.612 20.328 50.22 21.95-3.159 2.38-40.911 30.2-44.12 32.516z" fill="none"/><path d="M408.301 631.996l-.494-4.037c-.469-3.832-5.718-50.7-6.105-54.515l-.411-4.046 3.743 1.59c3.545 1.505 46.764 20.4 50.266 21.97l3.708 1.668-3.247 2.446c-3.068 2.31-41.037 30.293-44.161 32.545zm-1.371-54.945c1.13 10.267 4.009 35.972 5.178 46.239 8.33-6.114 29.153-21.46 37.457-27.605a15656.215 15656.215 0 0 0-42.635-18.634z" fill="#e94544"/><path d="M154.869 669.251c2.823 2.654 35.96 34.482 38.726 37.2-3.71 1.117-47.842 13.9-51.576 14.939.891-3.772 11.884-48.383 12.85-52.139z" fill="none"/><path d="M138.747 724.798l.931-3.958c.863-3.666 11.922-48.535 12.863-52.185l1.014-3.938 2.962 2.786c2.734 2.571 36.063 34.584 38.762 37.231l2.9 2.848-3.893 1.172c-3.6 1.085-47.992 13.942-51.625 14.953zm17.452-50.953c-2.448 9.85-8.459 34.24-10.869 44.1 9.754-2.8 33.883-9.794 43.625-12.636a16446.776 16446.776 0 0 0-32.756-31.464zm260.885-264.262l23.388 13.494-10.574 19.952 19.522 11.348-10.574 19.952 19.522 11.348-2.146 3.866-23.388-13.5 10.576-19.948-19.523-11.344 10.574-19.952-19.523-11.348z" fill="#e94544"/><path d="M638.655 424.003a23.915 23.915 0 1 1-33.742 2.292 23.914 23.914 0 0 1 33.742-2.292z" fill="none"/><path d="M622.921 468.34a26.32 26.32 0 1 1 19.839-9.013 26.3 26.3 0 0 1-19.839 9.013zm.019-47.831a21.512 21.512 0 1 0 14.134 5.305 21.515 21.515 0 0 0-14.134-5.305z" fill="#e94544"/><path d="M632.97 98.807a23.73 23.73 0 1 1 6.418 32.94 23.73 23.73 0 0 1-6.418-32.94z" fill="none"/><path d="M652.627 138.205a26.137 26.137 0 1 1 21.694-11.532 26.011 26.011 0 0 1-21.694 11.532zm.043-47.465a21.328 21.328 0 1 0 11.9 3.643 21.317 21.317 0 0 0-11.9-3.643z" fill="#e94544"/><path d="M124.768 541.094l44.854 8.686-8.685 44.854-44.854-8.683 8.685-44.857z" fill="none"/><path d="M162.841 597.451l-49.576-9.6 9.6-49.575 49.576 9.6zm-43.94-13.4l40.132 7.77 7.771-40.133-40.132-7.77z" fill="#e94544"/><path d="M520.81 230.898a21.73 21.73 0 1 1 28.326 11.918 21.73 21.73 0 0 1-28.326-11.918z" fill="none"/><path d="M540.943 246.834a24.147 24.147 0 1 1 9.105-1.792 24.053 24.053 0 0 1-9.105 1.792zm-.015-43.472a19.329 19.329 0 1 0 17.9 12.035 19.214 19.214 0 0 0-17.9-12.035z" fill="#e94544"/><path d="M432.901 323.651a20.684 20.684 0 1 1 29.234 1.06 20.684 20.684 0 0 1-29.234-1.06z" fill="none"/><path d="M448.052 332.651a23.088 23.088 0 1 1 15.721-6.182 23.169 23.169 0 0 1-15.721 6.182zm-.01-41.369a18.281 18.281 0 1 0 13.391 5.831 18.214 18.214 0 0 0-13.391-5.827z" fill="#e94544"/><path d="M674.954 227.442c3.881-1.553 50.079-19.476 53.991-20.947-.595 4.137-8.172 53.108-8.854 57.231-3.281-2.584-41.907-33.632-45.137-36.284z" fill="none"/><path d="M721.8 268.131l-3.195-2.515c-3.191-2.509-42.034-33.734-45.177-36.316l-3.142-2.58 3.775-1.51c3.774-1.511 50.237-19.537 54.039-20.966l3.8-1.431-.58 4.025c-.575 3.992-8.194 53.243-8.862 57.28zm-42.124-39.958c8.43 6.8 30.23 24.329 38.686 31.1 1.679-10.705 5.956-38.347 7.589-49.052a18103.847 18103.847 0 0 0-46.275 17.952zM407.634 520.716l-24.924 11.795-10.656-20.56-20.962 9.839-10.653-20.561-20.963 9.839-1.956-3.964 24.926-11.8 10.654 20.561 20.962-9.839 10.653 20.561 20.963-9.839zm147.925-195.792a37.474 37.474 0 0 1-13.508-2.518c-16.009-6.162-24.157-21.594-23.932-33.653l4.809.089c-.194 10.386 6.906 23.708 20.85 29.076s28.146.244 34.965-7.591l3.627 3.157c-5.673 6.518-15.697 11.44-26.811 11.44z" fill="#e94544"/><path d="M105.92 456.618a20.309 20.309 0 1 1 22.568-17.767 20.309 20.309 0 0 1-22.568 17.767z" fill="none"/><path d="M108.347 459.167a23.024 23.024 0 0 1-2.711-.161 22.715 22.715 0 0 1 2.661-45.27 23.007 23.007 0 0 1 2.71.161 22.715 22.715 0 0 1-2.66 45.27zm-.05-40.622a17.905 17.905 0 0 0-2.093 35.685 18.122 18.122 0 0 0 2.143.128 17.905 17.905 0 0 0 2.092-35.685 18.118 18.118 0 0 0-2.142-.128z" fill="#e94544"/><path d="M258.441 298.551c1.514 3.7 19 47.707 20.439 51.434-3.958-.537-50.817-7.4-54.763-8.016 2.445-3.155 31.814-40.306 34.324-43.418z" fill="none"/><path d="M282.585 352.919l-4.029-.547c-3.834-.52-50.962-7.419-54.812-8.024l-4.017-.631 2.488-3.216c2.377-3.072 31.916-40.436 34.355-43.456l2.555-3.164 1.541 3.763c1.477 3.606 19.066 47.87 20.457 51.481zm-54.026-12.711c10.307 1.529 36.261 5.329 46.571 6.818a17594.18 17594.18 0 0 0-17.381-43.742c-6.477 8.16-22.745 28.738-29.19 36.924z" fill="#e94544"/><path d="M518.335 141.041a20.421 20.421 0 1 1 27-10.243 20.421 20.421 0 0 1-27 10.243z" fill="none"/><path d="M526.702 145.251a22.832 22.832 0 1 1 20.827-13.465 22.645 22.645 0 0 1-20.827 13.465zm.024-40.852a18.037 18.037 0 1 0 7.382 1.592 18.058 18.058 0 0 0-7.382-1.594z" fill="#e94544"/><path d="M205.987 214.339a21.764 21.764 0 1 1 6.363 30.112 21.764 21.764 0 0 1-6.363-30.112z" fill="none"/><path d="M224.21 250.386a24.172 24.172 0 1 1 20.274-10.984 24.078 24.078 0 0 1-20.274 10.984zm.04-43.534a19.366 19.366 0 1 0 10.544 3.139 19.313 19.313 0 0 0-10.548-3.14zm373.721 2.447a29.6 29.6 0 0 1-11.07-2.035l1.81-4.455c8.79 3.571 22.485 1.886 31.644-8.251s9.449-23.93 5-32.317l4.25-2.252c5.228 9.866 4.954 26.015-5.686 37.792a35.023 35.023 0 0 1-25.948 11.518zm-87.873 563.668l2.5-25.224 20.887 1.316 2.134-20.818 20.891 1.317 2.135-20.819 4.4.365-2.5 25.224-20.887-1.317-2.134 20.819-20.887-1.317-2.135 20.819zM264.35 700l23.552 17.056-13.73 20.484 19.929 14.523-13.731 20.488 19.929 14.523-2.532 3.623-23.557-17.06 13.735-20.486-19.93-14.523 13.731-20.477-19.929-14.523zm0-700l23.552 17.056-13.73 20.484 19.929 14.524-13.731 20.487 19.929 14.523-2.532 3.624-23.557-17.061 13.735-20.486-19.93-14.523 13.731-20.477-19.929-14.528zm238.209 654.878l19.967-14.515 12.494 15.956 16.433-11.859 12.493 15.957 16.434-11.86 2.657 3.534-19.967 14.515-12.494-15.955-16.433 11.858-12.493-15.958-16.434 11.86z" fill="#e94544"/><path d="M696.399 462.28a22.275 22.275 0 1 1 22.835 21.7 22.274 22.274 0 0 1-22.835-21.7z" fill="none"/><path d="M718.655 486.393a24.68 24.68 0 0 1-.617-49.352c.213 0 .427-.008.638-.008a24.68 24.68 0 0 1 .619 49.352c-.214.005-.428.008-.64.008zm.021-44.551c-.17 0-.344 0-.515.007a19.848 19.848 0 1 0 .515-.007z" fill="#e94544"/><path d="M410.59 88.151c.609 4.166 7.311 53.644 7.832 57.822-3.912-1.561-50.112-20.496-53.992-22.134 3.304-2.61 42.803-33.152 46.16-35.688z" fill="none"/><path d="M421.31 149.705l-3.779-1.5c-3.822-1.52-50.285-20.564-54.038-22.149l-3.746-1.581 3.191-2.521c3.206-2.533 42.928-33.249 46.2-35.724l3.242-2.453.588 4.023c.59 4.027 7.329 53.787 7.839 57.873zm-52.147-26.507a18812.36 18812.36 0 0 0 46.334 18.991c-1.441-10.81-5.236-38.825-6.721-49.622-8.637 6.652-31 23.945-39.611 30.631zm12.754 210.895c-10.631-.665-23.628-8.938-27.9-23.46s2.172-28.516 10.748-34.834l2.852 3.872c-7.228 5.325-12.635 17.2-8.986 29.605s14.629 19.457 23.589 20.018zm91.163 404.194l-25.838 3.543-3.711-21.34-21.468 2.872-3.711-21.34-21.468 2.871-.672-4.369 25.838-3.543 3.711 21.339 21.468-2.871 3.711 21.34 21.468-2.872z" fill="#e94544"/><path d="M307.551 128.466a20.859 20.859 0 1 1-28.173-8.749 20.858 20.858 0 0 1 28.173 8.749z" fill="none"/><path d="M289.11 161.451a23.28 23.28 0 1 1 10.814-2.68 23.221 23.221 0 0 1-10.814 2.68zm-.036-41.727a18.459 18.459 0 1 0 16.351 9.866 18.491 18.491 0 0 0-16.353-9.871z" fill="#e94544"/></svg>