<svg data-name="Layer 1" xmlns="http://www.w3.org/2000/svg" viewBox="0 0 700 700"><title>pattern-shapes</title><path d="M25.362 607.866a26.128 26.128 0 0 0-7.979-36.036 26.012 26.012 0 0 0-14.006-4.1 26.6 26.6 0 0 0-3.377.222v4.868a21.59 21.59 0 0 1 3.377-.275 21.217 21.217 0 0 1 11.421 3.34 21.312 21.312 0 0 1 6.508 29.395A21.214 21.214 0 0 1 0 614.856v4.858a26 26 0 0 0 25.362-11.848zm655.986-28.058A26.088 26.088 0 0 0 700 619.714v-4.858a21.283 21.283 0 0 1 0-42.036v-4.868a25.975 25.975 0 0 0-18.652 11.856zM248.179 198.149l4.389.533 3.419-24.212 24.328 2.468 3.418-24.212 24.328 2.467 3.951-28.6-4.389-.533-3.418 24.213-24.328-2.468-3.419 24.212-24.327-2.468-3.952 28.6zM64.986 262.091l-1.011-3.939c-.906-3.525-11.65-43.612-12.634-47.135l-1.094-3.917-2.9 2.844c-2.59 2.536-31.935 31.885-34.505 34.51l-2.848 2.906 3.916 1.093c3.5.978 43.592 11.716 47.137 12.627zM19.174 244.9c6.578-6.6 22.017-22.043 28.614-28.618 2.428 9 8.082 30.087 10.477 39.089-9.005-2.395-30.097-8.046-39.091-10.471zm625.653 236.652l2.1 3.484c1.97 3.271 26.644 43.311 28.7 46.567l2.169 3.44 1.969-3.558c1.308-2.362 12.955-23.926 20.24-37.45v-14.123c-11.9.316-47.791 1.351-51.109 1.482zm54.717 3.183a17490.341 17490.341 0 0 1-22.025 40.809 18706.74 18706.74 0 0 1-24.329-39.479c10.3-.315 36.051-1.054 46.354-1.33zm-691.91-4.986l-4.066.074c-.5.009-1.764.041-3.568.089v14.124c2.973-5.519 5.223-9.706 5.74-10.688zm187.994 118.457c-14.344 4.484-28.263-1.579-34.6-9.884l-3.828 2.918c5.648 7.4 16.427 13.285 28.581 13.285a37.739 37.739 0 0 0 11.278-1.729c16.454-5.145 25.624-20.1 26.177-32.2l-4.8-.221c-.478 10.434-8.465 23.346-22.808 27.831zm274.604-280.864L432.558 328.8l-2.3.7 12.858 42.272 42.275-12.858-12.859-42.273zm-23.915 48.432L436.258 332.7l33.073-10.059 10.06 33.072zm158.565 265.099l-1.681-3.7-2.434 3.258c-2.385 3.189-31.235 42.642-33.555 45.885l-2.364 3.307 4.036.481c3.919.466 52.512 5.724 56.516 6.116l4.047.394-1.6-3.736c-1.563-3.638-21.306-48.35-22.965-52.005zm-31.343 44.91c6.271-8.612 22.333-30.578 28.639-39.165 4.325 9.742 15.317 34.635 19.6 44.385a18004.99 18004.99 0 0 1-48.239-5.22zm-.4-82.672l-7.886-23.345 23.018-8.796-7.886-23.345 23.018-8.796-9.382-27.505-4.161 1.496 7.887 23.346-23.018 8.796 7.885 23.345-23.017 8.795 9.382 27.505 4.16-1.496zM3.767 90.3a24.648 24.648 0 0 0-.14-49.3h-.146A25.1 25.1 0 0 0 0 41.27v4.887a19.93 19.93 0 0 1 3.509-.343h.118a19.839 19.839 0 0 1 .112 39.676h-.118A19.66 19.66 0 0 1 0 85.142v4.888a24.584 24.584 0 0 0 3.621.269zm675.21-24.5A24.717 24.717 0 0 0 700 90.03v-4.888a19.819 19.819 0 0 1 0-38.978v-4.889A24.681 24.681 0 0 0 678.977 65.8zM116.743 323.351a24.56 24.56 0 0 0-6.157-48.33 24.562 24.562 0 1 0 6.157 48.33zm-25.285-18.805a19.723 19.723 0 1 1 19.1 14.789 19.77 19.77 0 0 1-19.1-14.789zM244.69 407.131l.215-4.416-20.047-1.371.585-20.086-20.047-1.371.585-20.086-24.463-1.586-.216 4.415 20.048 1.372-.585 20.085 20.047 1.372-.585 20.085 24.463 1.587zM296.747 311a26.278 26.278 0 1 0 11.753 2.791A26.145 26.145 0 0 0 296.747 311zm19.165 35.89a21.468 21.468 0 1 1-9.568-28.8 21.364 21.364 0 0 1 9.568 28.802zM205.169 483.1l-3.781-1.494.511 4.033c.453 3.575 6.472 47.359 7 50.924l.6 4.022 3.237-2.46c2.889-2.195 37.8-29.3 40.6-31.524l3.186-2.528-3.75-1.573c-3.344-1.407-44.272-18.087-47.603-19.4zm7.912 48.683c-1.347-9.665-4.554-33-5.865-42.672 9.041 3.665 30.855 12.556 39.888 16.257a19752.865 19752.865 0 0 1-34.023 26.411zm250.832-70.765l-43.228 23.059 1.133 2.122c1.839 3.445 18.957 35.537 20.8 38.984l1.132 2.121 43.227-23.059zm-36.72 25.039l34.74-18.533 18.533 34.741-34.74 18.535-18.533-34.743zM529.8 438.4c-15.865-2.518-29.72 6.168-35.2 16.053l4.2 2.332c4.67-8.42 16.561-15.807 30.241-13.635s22.7 12.878 24.529 22.331l4.721-.914c-2.147-11.095-12.625-23.647-28.491-26.167zM281.9 607.73c-7.619 15.72-2.943 32.866 5.614 41.677l3.45-3.349c-7.39-7.612-11.39-22.5-4.736-36.23s20.818-19.813 31.372-18.728l.492-4.784c-12.215-1.264-28.569 5.695-36.192 21.414zM149.562 76.66l3.564 1.959v-4.067c0-3.662-.44-45.279-.517-48.933l-.086-4.065L149 23.587c-3.152 1.82-38.973 23.01-42.119 24.915l-3.477 2.106 3.52 2.033c3.15 1.818 39.411 22.245 42.638 24.019zm-1.705-46.825c.116 9.339.348 31.264.43 40.6-8.148-4.57-27.252-15.332-35.379-19.93 8.032-4.768 26.903-15.93 34.949-20.67zm207.465 121.691l16.994-11.872 12.53 16.516 16.995-11.872 12.529 16.516 20.568-14.475-2.601-3.573-16.995 11.872-12.529-16.516-16.996 11.872-12.529-16.517-20.569 14.475 2.603 3.574zm322.456 130.263a24.516 24.516 0 0 0-3.683.281 24.167 24.167 0 0 0 3.63 48.056 24.516 24.516 0 0 0 3.683-.281 24.009 24.009 0 0 0 15.819-9.582A24.307 24.307 0 0 0 700 315.4v-18.795a24.328 24.328 0 0 0-22.222-14.816zm15.574 35.627a19.23 19.23 0 0 1-12.672 7.675 19.334 19.334 0 0 1-22.062-16.2 19.378 19.378 0 0 1 16.2-22.062 19.334 19.334 0 0 1 22.062 16.2 19.233 19.233 0 0 1-3.528 14.387zM1.639 302.3A23.788 23.788 0 0 0 0 296.6v18.8a24.014 24.014 0 0 0 1.639-13.1zM21.61 18.81l2.041-4.355C18.292 11.945 13.132 6.776 10.1 0H4.927c3.378 8.837 9.894 15.629 16.683 18.81zM7.469 684.245c1.278-14.257 11.68-24.3 21.3-26.851l-1.233-4.648c-11.236 2.981-23.382 14.61-24.857 31.069A36.108 36.108 0 0 0 4.927 700H10.1a31.508 31.508 0 0 1-2.631-15.755zm589.367-371.972c1.251-3.518 16.1-46.7 17.27-50.224l1.282-3.859-4 .736c-3.67.676-48.492 9.407-52.129 10.155l-3.983.82 2.637 3.099c2.534 2.976 32.181 37.052 34.859 40.069l2.7 3.041zm-32.572-39.282c9.852-1.939 34.09-6.661 43.955-8.563-3.248 9.5-11.278 32.855-14.563 42.348-6.612-7.571-22.82-26.202-29.392-33.785zm-405.042 181.13l1.352-4.209-20.309-6.969 6.167-20.566-20.309-6.969 6.168-20.567-24.518-8.322-1.353 4.21 20.309 6.968-6.167 20.567 20.309 6.968-6.167 20.568 24.518 8.321zM99.937 118.847L54.9 109.531l-9.316 45.038 45.038 9.315zm-48.67 31.986l7.367-35.618 35.619 7.367-7.367 35.618zm294.85 360.418l.411 4.046c.387 3.809 5.636 50.682 6.1 54.514l.494 4.038 3.3-2.379c3.124-2.252 41.093-30.236 44.161-32.545l3.247-2.447-3.708-1.668c-3.5-1.574-46.721-20.464-50.266-21.969zm48.274 26.285c-8.3 6.145-29.127 21.49-37.457 27.605a18566.193 18566.193 0 0 1-5.178-46.24c9.474 4.118 33.177 14.479 42.635 18.635zm-293.048 71.819l-2.962-2.785-1.014 3.938c-.941 3.65-12 48.519-12.863 52.184l-.931 3.958 3.917-1.09c3.633-1.011 48.021-13.869 51.625-14.954l3.893-1.171-2.9-2.848c-2.702-2.647-36.031-34.66-38.765-37.232zM90.156 659.8c2.41-9.858 8.421-34.248 10.869-44.1 7.332 7.015 25.45 24.416 32.756 31.462-9.742 2.838-33.871 9.829-43.625 12.638zM361.91 351.435l-2.146 3.865 19.523 11.348-10.574 19.953 19.521 11.347L377.66 417.9l23.388 13.496 2.146-3.866-19.522-11.348 10.574-19.953-19.522-11.347 10.574-19.952-23.388-13.495zm223.152 12.609a26.318 26.318 0 1 0 8.954 18.045 26.3 26.3 0 0 0-8.954-18.045zm-1.1 33.974a21.512 21.512 0 1 1 5.254-15.6 21.523 21.523 0 0 1-5.253 15.6zM582.87 75.594a26.137 26.137 0 1 0-7.07-36.278 26.011 26.011 0 0 0 7.07 36.278zM579.79 42a21.328 21.328 0 1 1 5.768 29.6A21.317 21.317 0 0 1 579.79 42zM117.266 489.729l-49.576-9.6-9.6 49.575 49.576 9.6zM63.727 525.9l7.773-40.134 40.132 7.77-7.771 40.133zm412.922-383.7a24.116 24.116 0 1 0 9.105-1.792 23.977 23.977 0 0 0-9.105 1.792zm27.008 15.052a19.306 19.306 0 1 1-17.9-12.035 19.347 19.347 0 0 1 17.9 12.033zm-87.709 95.003a23.088 23.088 0 1 0-7.349 16.071 22.942 22.942 0 0 0 7.349-16.071zm-23.07 17.445a18.28 18.28 0 1 1 13.381-30.729 18.279 18.279 0 0 1-13.381 30.729zm222.234-101.127l3.142 2.58c3.143 2.581 41.986 33.807 45.177 36.316l3.195 2.514.663-4.012c.668-4.037 8.287-53.288 8.862-57.281l.58-4.024-3.8 1.431c-3.8 1.429-50.265 19.455-54.039 20.965zm55.665-16.5c-1.633 10.7-5.91 38.347-7.589 49.052a18198.977 18198.977 0 0 1-38.686-31.1c10.098-3.939 36.17-14.056 46.275-17.953zM350.504 458.604l-20.963 9.839-10.653-20.56-20.962 9.839-10.653-20.561-24.927 11.796 1.956 3.964 20.963-9.839 10.653 20.561 20.962-9.839 10.653 20.56 24.927-11.796-1.956-3.964zM488.6 259.771c-13.944-5.368-21.044-18.69-20.85-29.076l-4.809-.089c-.225 12.059 7.923 27.491 23.932 33.653a37.474 37.474 0 0 0 13.508 2.518c11.114 0 21.138-4.922 26.811-11.44l-3.627-3.157c-6.815 7.835-21.015 12.959-34.965 7.591zM75.7 380.99a22.74 22.74 0 0 0-19.869-25.24 23 23 0 0 0-2.71-.161A22.715 22.715 0 1 0 75.7 380.99zm-22.527 15.221a18.122 18.122 0 0 1-2.143-.128 17.905 17.905 0 0 1 2.093-35.683 18.116 18.116 0 0 1 2.142.127 17.906 17.906 0 0 1-2.092 35.686zm111.38-110.641l4.017.631c3.85.6 50.978 7.5 54.812 8.024l4.029.547-1.462-3.794c-1.391-3.611-18.98-47.875-20.457-51.481l-1.541-3.763-2.551 3.166c-2.439 3.019-31.977 40.384-34.354 43.456zm38.022-40.433c3.867 9.676 13.554 34.053 17.381 43.741-10.31-1.488-36.264-5.288-46.571-6.817 6.445-8.186 22.715-28.761 29.19-36.924zm259.6-160.051a22.634 22.634 0 0 0 9.353 2.016 22.85 22.85 0 1 0-9.353-2.016zm-7.065-28.208a18.017 18.017 0 1 1 16.418 25.414 18.021 18.021 0 0 1-16.418-25.414zM148.8 154.879a24.162 24.162 0 1 0 20.272-10.979 24.007 24.007 0 0 0-20.272 10.979zm20.274-6.174a19.362 19.362 0 1 1-16.244 8.8 19.279 19.279 0 0 1 16.242-8.8zm399.675-9.071c10.64-11.777 10.914-27.926 5.686-37.792l-4.25 2.252c4.445 8.387 4.153 22.18-5 32.317s-22.854 11.822-31.644 8.251l-1.81 4.455a29.622 29.622 0 0 0 11.07 2.035 35.023 35.023 0 0 0 25.948-11.518zM454.924 14.82l4.405.365L460.886 0h-4.494l-1.468 14.82zm27.427 680.863l2.134-20.819 20.887 1.317 2.499-25.224-4.405-.365-2.135 20.819-20.887-1.317-2.134 20.818-20.887-1.316L456.392 700h4.494l.578-5.634 20.887 1.317zm-263.353-16.29l13.731-20.484-23.553-17.057-2.533 3.624 19.929 14.523-13.731 20.484 19.93 14.524-3.347 4.993h5.425l4.078-6.084-19.929-14.523zm23.595-646.847l2.532-3.623L225.196 14.4 234.849 0h-5.425L219.04 15.49l23.553 17.056zm266.179 569.723l-12.493-15.956-16.433 11.859-12.494-15.956-19.967 14.514 2.657 3.534 16.434-11.859 12.493 15.956 16.433-11.858 12.494 15.956 19.967-14.515-2.657-3.534-16.434 11.859zm154.709-174.023c.212 0 .426 0 .64-.008a24.68 24.68 0 0 0-.619-49.352c-.211 0-.425 0-.638.008a24.68 24.68 0 0 0 .617 49.352zm-14.392-38.368a19.737 19.737 0 0 1 13.9-6.176c.171 0 .345-.007.515-.007a19.871 19.871 0 1 1-14.413 6.183zM362.359 90.056l3.779 1.5-.5-4.035c-.51-4.085-7.249-53.845-7.839-57.873l-.588-4.023-3.242 2.454c-3.271 2.475-42.993 33.191-46.2 35.724l-3.191 2.521 3.746 1.581c3.75 1.587 50.213 20.631 54.035 22.151zM353.6 34.42c1.485 10.8 5.28 38.811 6.721 49.622a18496.59 18496.59 0 0 1-46.334-18.991c8.613-6.686 30.978-23.979 39.613-30.631zm-26.556 236.726c-8.96-.561-19.94-7.617-23.589-20.018s1.758-24.279 8.986-29.6l-2.852-3.872c-8.576 6.318-15.021 20.312-10.748 34.834s17.271 22.8 27.9 23.46zm68.722 407.496l-3.711-21.34-21.468 2.871-3.711-21.339-25.838 3.543.672 4.369 21.468-2.871 3.711 21.34 21.468-2.872 3.711 21.34 25.838-3.543-.672-4.371-21.468 2.873zM233.934 103.3a23.269 23.269 0 1 0-20.606-12.437 23.322 23.322 0 0 0 20.606 12.437zm-17.642-28.742a18.459 18.459 0 1 1 1.292 14.065 18.335 18.335 0 0 1-1.292-14.065z" fill="#17b0ff"/></svg>