<svg id="_ÎÓÈ_1" data-name="—ÎÓÈ_1" xmlns="http://www.w3.org/2000/svg" viewBox="0 0 132.103 93.23">
  <defs>
    <style>
      .cls-1 { fill: #ff5756; }
    </style>
  </defs>
<title>quotation-marks</title>
<path class="cls-1" d="M107.021,100a31.536,31.536,0,0,1-31.35-30.836c-.1-6.984,1.553-42.155,43.783-62.236a1.631,1.631,0,0,1,1.85,2.631c-.15.149-14.5,14.591-14.254,27.64a31.4,31.4,0,0,1-.029,62.8Z" transform="translate(-6.319 -6.77)" style="fill:#3bbcff"/>
<path class="cls-1" d="M37.673,100A31.537,31.537,0,0,1,6.323,69.164c-.1-6.984,1.553-42.155,43.783-62.236a1.631,1.631,0,0,1,1.85,2.631c-.15.149-14.5,14.591-14.254,27.64a31.4,31.4,0,0,1-.029,62.8Z" transform="translate(-6.319 -6.77)" style="fill:#3bbcff"/>
</svg>
