<svg id="Layer_1" data-name="Layer 1" xmlns="http://www.w3.org/2000/svg" viewBox="0 0 518.8 35.88">
  <defs>
    <style>
      .cls-1 { fill: #fff730; }
    </style>
  </defs>
  <title>zig-zag</title>
  <path class="cls-1" d="M507.741,14.555,493.2,25.46a6,6,0,0,1-7.2,0L464.4,9.26a6,6,0,0,0-7.2,0l-21.6,16.2a6,6,0,0,1-7.2,0L406.8,9.26a6,6,0,0,0-7.2,0L378,25.46a6,6,0,0,1-7.2,0L349.2,9.26a6,6,0,0,0-7.2,0l-21.6,16.2a6,6,0,0,1-7.2,0L291.6,9.26a6,6,0,0,0-7.2,0l-21.6,16.2a6,6,0,0,1-7.2,0L234,9.26a6,6,0,0,0-7.2,0l-21.6,16.2a6,6,0,0,1-7.2,0L176.4,9.26a6,6,0,0,0-7.2,0l-21.6,16.2a6,6,0,0,1-7.2,0L118.8,9.26a6,6,0,0,0-7.2,0L90,25.46a6,6,0,0,1-7.2,0L61.2,9.26a6,6,0,0,0-7.2,0L32.4,25.46a6,6,0,0,1-7.2,0L11.059,14.854A6.912,6.912,0,0,0,0,20.384H0a6.912,6.912,0,0,0,2.765,5.53L25.2,42.74a6,6,0,0,0,7.2,0L54,26.54a6,6,0,0,1,7.2,0l21.6,16.2a6,6,0,0,0,7.2,0l21.6-16.2a6,6,0,0,1,7.2,0l21.6,16.2a6,6,0,0,0,7.2,0l21.6-16.2a6,6,0,0,1,7.2,0L198,42.74a6,6,0,0,0,7.2,0l21.6-16.2a6,6,0,0,1,7.2,0l21.6,16.2a6,6,0,0,0,7.2,0l21.6-16.2a6,6,0,0,1,7.2,0l21.6,16.2a6,6,0,0,0,7.2,0L342,26.54a6,6,0,0,1,7.2,0l21.6,16.2a6,6,0,0,0,7.2,0l21.6-16.2a6,6,0,0,1,7.2,0l21.6,16.2a6,6,0,0,0,7.2,0l21.6-16.2a6,6,0,0,1,7.2,0L486,42.74a6,6,0,0,0,7.2,0l22.835-17.126a6.912,6.912,0,0,0,2.765-5.53h0A6.912,6.912,0,0,0,507.741,14.555Z" transform="translate(0 -8.06)"/>
</svg>
