<svg id="Layer_1" data-name="Layer 1" xmlns="http://www.w3.org/2000/svg" viewBox="0 0 700 700"><title>pattern-shapes</title><path d="M25.362,607.866a26.128,26.128,0,0,0-7.979-36.036,26.012,26.012,0,0,0-14.006-4.1A26.6,26.6,0,0,0,0,567.952v4.868a21.59,21.59,0,0,1,3.377-.275,21.217,21.217,0,0,1,11.421,3.34,21.312,21.312,0,0,1,6.508,29.395A21.214,21.214,0,0,1,0,614.856v4.858a26,26,0,0,0,25.362-11.848Z" style="fill:#e94544"/><path d="M681.348,579.808A26.088,26.088,0,0,0,700,619.714v-4.858a21.283,21.283,0,0,1,0-42.036v-4.868A25.975,25.975,0,0,0,681.348,579.808Z" style="fill:#e94544"/><polygon points="248.179 198.149 252.568 198.682 255.987 174.47 280.315 176.938 283.733 152.726 308.061 155.193 312.012 126.593 307.623 126.06 304.205 150.273 279.877 147.805 276.458 172.017 252.131 169.549 248.179 198.149" style="fill:#e94544"/><path d="M64.986,262.091l-1.011-3.939c-.906-3.525-11.65-43.612-12.634-47.135L50.247,207.1l-2.9,2.844c-2.59,2.536-31.935,31.885-34.505,34.51L9.994,247.36l3.916,1.093c3.5.978,43.592,11.716,47.137,12.627ZM19.174,244.9c6.578-6.6,22.017-22.043,28.614-28.618,2.428,9,8.082,30.087,10.477,39.089C49.26,252.976,28.168,247.325,19.174,244.9Z" style="fill:#e94544"/><path d="M644.827,481.552l2.1,3.484c1.97,3.271,26.644,43.311,28.7,46.567l2.169,3.44,1.969-3.558c1.308-2.362,12.955-23.926,20.24-37.45V479.912c-11.9.316-47.791,1.351-51.109,1.482Zm54.717,3.183c-4.879,9.082-17.114,31.754-22.025,40.809-5.425-8.766-18.941-30.7-24.329-39.479C663.49,485.75,689.241,485.011,699.544,484.735Z" style="fill:#e94544"/><path d="M7.634,479.749l-4.066.074c-.5.009-1.764.041-3.568.089v14.124c2.973-5.519,5.223-9.706,5.74-10.688Z" style="fill:#e94544"/><path d="M195.628,598.206c-14.344,4.484-28.263-1.579-34.6-9.884L157.2,591.24c5.648,7.4,16.427,13.285,28.581,13.285a37.739,37.739,0,0,0,11.278-1.729c16.454-5.145,25.624-20.1,26.177-32.2l-4.8-.221C217.958,580.809,209.971,593.721,195.628,598.206Z" style="fill:#e94544"/><path d="M470.232,317.342,432.558,328.8l-2.3.7,12.858,42.272,42.275-12.858-12.859-42.273Zm-23.915,48.432L436.258,332.7l33.073-10.059,10.06,33.072Z" style="fill:#e94544"/><path d="M604.882,630.873l-1.681-3.7-2.434,3.258c-2.385,3.189-31.235,42.642-33.555,45.885l-2.364,3.307,4.036.481c3.919.466,52.512,5.724,56.516,6.116l4.047.394-1.6-3.736C626.284,679.24,606.541,634.528,604.882,630.873Zm-31.343,44.91c6.271-8.612,22.333-30.578,28.639-39.165,4.325,9.742,15.317,34.635,19.6,44.385C611.178,679.878,584.122,676.95,573.539,675.783Z" style="fill:#e94544"/><polygon points="573.139 593.111 565.253 569.766 588.271 560.97 580.385 537.625 603.403 528.829 594.021 501.324 589.86 502.82 597.747 526.166 574.729 534.962 582.614 558.307 559.597 567.102 568.979 594.607 573.139 593.111" style="fill:#e94544"/><path d="M3.767,90.3A24.648,24.648,0,0,0,3.627,41H3.481A25.1,25.1,0,0,0,0,41.27v4.887a19.93,19.93,0,0,1,3.509-.343h.118A19.839,19.839,0,0,1,3.739,85.49H3.621A19.66,19.66,0,0,1,0,85.142V90.03a24.584,24.584,0,0,0,3.621.269Z" style="fill:#e94544"/><path d="M678.977,65.8A24.717,24.717,0,0,0,700,90.03V85.142a19.819,19.819,0,0,1,0-38.978V41.275A24.681,24.681,0,0,0,678.977,65.8Z" style="fill:#e94544"/><path d="M116.743,323.351a24.56,24.56,0,0,0-6.157-48.33,24.562,24.562,0,1,0,6.157,48.33ZM91.458,304.546a19.723,19.723,0,1,1,19.1,14.789A19.77,19.77,0,0,1,91.458,304.546Z" style="fill:#e94544"/><polygon points="244.69 407.131 244.905 402.715 224.858 401.344 225.443 381.258 205.396 379.887 205.981 359.801 181.518 358.215 181.302 362.63 201.35 364.002 200.765 384.087 220.812 385.459 220.227 405.544 244.69 407.131" style="fill:#e94544"/><path d="M296.747,311a26.278,26.278,0,1,0,11.753,2.791A26.145,26.145,0,0,0,296.747,311Zm19.165,35.89a21.468,21.468,0,1,1-9.568-28.8A21.364,21.364,0,0,1,315.912,346.892Z" style="fill:#e94544"/><path d="M205.169,483.1l-3.781-1.494.511,4.033c.453,3.575,6.472,47.359,7,50.924l.6,4.022,3.237-2.46c2.889-2.195,37.8-29.3,40.6-31.524l3.186-2.528-3.75-1.573C249.428,501.093,208.5,484.413,205.169,483.1Zm7.912,48.683c-1.347-9.665-4.554-33-5.865-42.672,9.041,3.665,30.855,12.556,39.888,16.257C239.409,511.361,220.8,525.807,213.081,531.779Z" style="fill:#e94544"/><path d="M463.913,461.018l-43.228,23.059,1.133,2.122c1.839,3.445,18.957,35.537,20.8,38.984l1.132,2.121,43.227-23.059Zm-36.72,25.039,34.74-18.533,18.533,34.741L445.726,520.8C441.951,513.722,430.968,493.133,427.193,486.057Z" style="fill:#e94544"/><path d="M529.8,438.4c-15.865-2.518-29.72,6.168-35.2,16.053l4.2,2.332c4.67-8.42,16.561-15.807,30.241-13.635s22.7,12.878,24.529,22.331l4.721-.914C556.144,453.472,545.666,440.92,529.8,438.4Z" style="fill:#e94544"/><path d="M281.9,607.73c-7.619,15.72-2.943,32.866,5.614,41.677l3.45-3.349c-7.39-7.612-11.39-22.5-4.736-36.23S307.046,590.015,317.6,591.1l.492-4.784C305.877,585.052,289.523,592.011,281.9,607.73Z" style="fill:#e94544"/><path d="M149.562,76.66l3.564,1.959V74.552c0-3.662-.44-45.279-.517-48.933l-.086-4.065L149,23.587c-3.152,1.82-38.973,23.01-42.119,24.915l-3.477,2.106,3.52,2.033C110.074,54.459,146.335,74.886,149.562,76.66Zm-1.705-46.825c.116,9.339.348,31.264.43,40.6-8.148-4.57-27.252-15.332-35.379-19.93C120.94,45.737,139.811,34.575,147.857,29.835Z" style="fill:#e94544"/><polygon points="355.322 151.526 372.316 139.654 384.846 156.17 401.841 144.298 414.37 160.814 434.938 146.339 432.337 142.766 415.342 154.638 402.813 138.122 385.817 149.994 373.288 133.477 352.719 147.952 355.322 151.526" style="fill:#e94544"/><path d="M677.778,281.789a24.516,24.516,0,0,0-3.683.281,24.167,24.167,0,0,0,3.63,48.056,24.516,24.516,0,0,0,3.683-.281,24.009,24.009,0,0,0,15.819-9.582A24.307,24.307,0,0,0,700,315.4V296.605A24.328,24.328,0,0,0,677.778,281.789Zm15.574,35.627a19.23,19.23,0,0,1-12.672,7.675,19.334,19.334,0,0,1-22.062-16.2,19.378,19.378,0,0,1,16.2-22.062,19.334,19.334,0,0,1,22.062,16.2A19.233,19.233,0,0,1,693.352,317.416Z" style="fill:#e94544"/><path d="M1.639,302.3A23.788,23.788,0,0,0,0,296.6V315.4A24.014,24.014,0,0,0,1.639,302.3Z" style="fill:#e94544"/><path d="M21.61,18.81l2.041-4.355C18.292,11.945,13.132,6.776,10.1,0H4.927C8.305,8.837,14.821,15.629,21.61,18.81Z" style="fill:#e94544"/><path d="M7.469,684.245c1.278-14.257,11.68-24.3,21.3-26.851l-1.233-4.648C16.3,655.727,4.154,667.356,2.679,683.815A36.108,36.108,0,0,0,4.927,700H10.1A31.508,31.508,0,0,1,7.469,684.245Z" style="fill:#e94544"/><path d="M596.836,312.273c1.251-3.518,16.1-46.7,17.27-50.224l1.282-3.859-4,.736c-3.67.676-48.492,9.407-52.129,10.155l-3.983.82L557.913,273c2.534,2.976,32.181,37.052,34.859,40.069l2.7,3.041Zm-32.572-39.282c9.852-1.939,34.09-6.661,43.955-8.563-3.248,9.5-11.278,32.855-14.563,42.348C587.044,299.205,570.836,280.574,564.264,272.991Z" style="fill:#e94544"/><polygon points="159.222 454.121 160.574 449.912 140.265 442.943 146.432 422.377 126.123 415.408 132.291 394.841 107.773 386.519 106.42 390.729 126.729 397.697 120.562 418.264 140.871 425.232 134.704 445.8 159.222 454.121" style="fill:#e94544"/><path d="M99.937,118.847,54.9,109.531l-9.316,45.038,45.038,9.315Zm-48.67,31.986,7.367-35.618,35.619,7.367L86.886,158.2Z" style="fill:#e94544"/><path d="M346.117,511.251l.411,4.046c.387,3.809,5.636,50.682,6.1,54.514l.494,4.038,3.3-2.379c3.124-2.252,41.093-30.236,44.161-32.545l3.247-2.447-3.708-1.668c-3.5-1.574-46.721-20.464-50.266-21.969Zm48.274,26.285c-8.3,6.145-29.127,21.49-37.457,27.605-1.169-10.267-4.048-35.972-5.178-46.24C361.23,523.019,384.933,533.38,394.391,537.536Z" style="fill:#e94544"/><path d="M101.343,609.355l-2.962-2.785-1.014,3.938c-.941,3.65-12,48.519-12.863,52.184l-.931,3.958,3.917-1.09c3.633-1.011,48.021-13.869,51.625-14.954l3.893-1.171-2.9-2.848C137.406,643.94,104.077,611.927,101.343,609.355ZM90.156,659.8c2.41-9.858,8.421-34.248,10.869-44.1,7.332,7.015,25.45,24.416,32.756,31.462C124.039,650,99.91,656.991,90.156,659.8Z" style="fill:#e94544"/><polygon points="361.91 351.435 359.764 355.3 379.287 366.648 368.713 386.601 388.234 397.948 377.66 417.9 401.048 431.396 403.194 427.53 383.672 416.182 394.246 396.229 374.724 384.882 385.298 364.93 361.91 351.435" style="fill:#e94544"/><path d="M585.062,364.044a26.318,26.318,0,1,0,8.954,18.045A26.3,26.3,0,0,0,585.062,364.044Zm-1.1,33.974a21.512,21.512,0,1,1,5.254-15.6A21.523,21.523,0,0,1,583.963,398.018Z" style="fill:#e94544"/><path d="M582.87,75.594A26.137,26.137,0,1,0,575.8,39.316,26.011,26.011,0,0,0,582.87,75.594ZM579.79,42a21.328,21.328,0,1,1,5.768,29.6A21.317,21.317,0,0,1,579.79,42Z" style="fill:#e94544"/><path d="M117.266,489.729l-49.576-9.6-9.6,49.575,49.576,9.6ZM63.727,525.9,71.5,485.766l40.132,7.77-7.771,40.133Z" style="fill:#e94544"/><path d="M476.649,142.2a24.116,24.116,0,1,0,9.105-1.792A23.977,23.977,0,0,0,476.649,142.2Zm27.008,15.052a19.306,19.306,0,1,1-17.9-12.035A19.347,19.347,0,0,1,503.657,157.25Z" style="fill:#e94544"/><path d="M415.948,252.255a23.088,23.088,0,1,0-7.349,16.071A22.942,22.942,0,0,0,415.948,252.255ZM392.878,269.7a18.28,18.28,0,1,1,13.381-30.729A18.279,18.279,0,0,1,392.878,269.7Z" style="fill:#e94544"/><path d="M615.112,168.573l3.142,2.58c3.143,2.581,41.986,33.807,45.177,36.316l3.195,2.514.663-4.012c.668-4.037,8.287-53.288,8.862-57.281l.58-4.024-3.8,1.431c-3.8,1.429-50.265,19.455-54.039,20.965Zm55.665-16.5c-1.633,10.7-5.91,38.347-7.589,49.052-8.456-6.769-30.256-24.294-38.686-31.1C634.6,166.086,660.672,155.969,670.777,152.072Z" style="fill:#e94544"/><polygon points="350.504 458.604 329.541 468.443 318.888 447.883 297.926 457.722 287.273 437.161 262.346 448.957 264.302 452.921 285.265 443.082 295.918 463.643 316.88 453.804 327.533 474.364 352.46 462.568 350.504 458.604" style="fill:#e94544"/><path d="M488.6,259.771c-13.944-5.368-21.044-18.69-20.85-29.076l-4.809-.089c-.225,12.059,7.923,27.491,23.932,33.653a37.474,37.474,0,0,0,13.508,2.518c11.114,0,21.138-4.922,26.811-11.44l-3.627-3.157C516.75,260.015,502.55,265.139,488.6,259.771Z" style="fill:#e94544"/><path d="M75.7,380.99a22.74,22.74,0,0,0-19.869-25.24,23,23,0,0,0-2.71-.161A22.715,22.715,0,1,0,75.7,380.99ZM53.173,396.211a18.122,18.122,0,0,1-2.143-.128A17.905,17.905,0,0,1,53.123,360.4a18.116,18.116,0,0,1,2.142.127,17.906,17.906,0,0,1-2.092,35.686Z" style="fill:#e94544"/><path d="M164.553,285.57l4.017.631c3.85.6,50.978,7.5,54.812,8.024l4.029.547-1.462-3.794c-1.391-3.611-18.98-47.875-20.457-51.481l-1.541-3.763L201.4,238.9c-2.439,3.019-31.977,40.384-34.354,43.456Zm38.022-40.433c3.867,9.676,13.554,34.053,17.381,43.741-10.31-1.488-36.264-5.288-46.571-6.817C179.83,273.875,196.1,253.3,202.575,245.137Z" style="fill:#e94544"/><path d="M462.175,85.086a22.634,22.634,0,0,0,9.353,2.016,22.85,22.85,0,1,0-9.353-2.016ZM455.11,56.878a18.017,18.017,0,1,1,16.418,25.414A18.021,18.021,0,0,1,455.11,56.878Z" style="fill:#e94544"/><path d="M148.8,154.879A24.162,24.162,0,1,0,169.072,143.9,24.007,24.007,0,0,0,148.8,154.879Zm20.274-6.174a19.362,19.362,0,1,1-16.244,8.8A19.279,19.279,0,0,1,169.072,148.705Z" style="fill:#e94544"/><path d="M568.749,139.634c10.64-11.777,10.914-27.926,5.686-37.792l-4.25,2.252c4.445,8.387,4.153,22.18-5,32.317s-22.854,11.822-31.644,8.251l-1.81,4.455a29.622,29.622,0,0,0,11.07,2.035A35.023,35.023,0,0,0,568.749,139.634Z" style="fill:#e94544"/><polygon points="454.924 14.82 459.329 15.185 460.886 0 456.392 0 454.924 14.82" style="fill:#e94544"/><polygon points="482.351 695.683 484.485 674.864 505.372 676.181 507.871 650.957 503.466 650.592 501.331 671.411 480.444 670.094 478.31 690.912 457.423 689.596 456.392 700 460.886 700 461.464 694.366 482.351 695.683" style="fill:#e94544"/><polygon points="218.998 679.393 232.729 658.909 209.176 641.852 206.643 645.476 226.572 659.999 212.841 680.483 232.771 695.007 229.424 700 234.849 700 238.927 693.916 218.998 679.393" style="fill:#e94544"/><polygon points="242.593 32.546 245.125 28.923 225.196 14.4 234.849 0 229.424 0 219.04 15.49 242.593 32.546" style="fill:#e94544"/><polygon points="508.772 602.269 496.279 586.313 479.846 598.172 467.352 582.216 447.385 596.73 450.042 600.264 466.476 588.405 478.969 604.361 495.402 592.503 507.896 608.459 527.863 593.944 525.206 590.41 508.772 602.269" style="fill:#e94544"/><path d="M663.481,428.246c.212,0,.426,0,.64-.008a24.68,24.68,0,0,0-.619-49.352c-.211,0-.425,0-.638.008a24.68,24.68,0,0,0,.617,49.352Zm-14.392-38.368a19.737,19.737,0,0,1,13.9-6.176c.171,0,.345-.007.515-.007a19.871,19.871,0,1,1-14.413,6.183Z" style="fill:#e94544"/><path d="M362.359,90.056l3.779,1.5-.5-4.035c-.51-4.085-7.249-53.845-7.839-57.873l-.588-4.023-3.242,2.454c-3.271,2.475-42.993,33.191-46.2,35.724l-3.191,2.521,3.746,1.581C312.074,69.492,358.537,88.536,362.359,90.056ZM353.6,34.42c1.485,10.8,5.28,38.811,6.721,49.622-10.1-4.115-36.258-14.837-46.334-18.991C322.6,58.365,344.965,41.072,353.6,34.42Z" style="fill:#e94544"/><path d="M327.044,271.146c-8.96-.561-19.94-7.617-23.589-20.018s1.758-24.279,8.986-29.6l-2.852-3.872c-8.576,6.318-15.021,20.312-10.748,34.834s17.271,22.8,27.9,23.46Z" style="fill:#e94544"/><polygon points="395.766 678.642 392.055 657.302 370.587 660.173 366.876 638.834 341.038 642.377 341.71 646.746 363.178 643.875 366.889 665.215 388.357 662.343 392.068 683.683 417.906 680.14 417.234 675.769 395.766 678.642" style="fill:#e94544"/><path d="M233.934,103.3a23.269,23.269,0,1,0-20.606-12.437A23.322,23.322,0,0,0,233.934,103.3ZM216.292,74.558a18.459,18.459,0,1,1,1.292,14.065A18.335,18.335,0,0,1,216.292,74.558Z" style="fill:#e94544"/></svg>