<svg id="Layer_1" data-name="Layer 1" xmlns="http://www.w3.org/2000/svg" viewBox="0 0 784.62 790.694"><title>pattern-shapes</title><path d="M56.038,654.9a23.694,23.694,0,1,1,7.244,32.716A23.695,23.695,0,0,1,56.038,654.9Z" transform="translate(-17.49 -15.649)" style="fill:#17b0ff;fill-opacity:0"/><path d="M76,693.735a26.1,26.1,0,1,1,22.03-12.073A26.012,26.012,0,0,1,76,693.735Zm.045-47.394a21.293,21.293,0,1,0,11.421,3.34A21.215,21.215,0,0,0,76.041,646.341Z" transform="translate(-17.49 -15.649)" style="fill:#17b0ff"/><path d="M756.039,654.9a23.694,23.694,0,1,1,7.243,32.716A23.693,23.693,0,0,1,756.039,654.9Z" transform="translate(-17.49 -15.649)" style="fill:#17b0ff;fill-opacity:0"/><path d="M776,693.735a26.1,26.1,0,1,1,22.029-12.073A26.018,26.018,0,0,1,776,693.735Zm.045-47.394a21.293,21.293,0,1,0,11.421,3.34A21.217,21.217,0,0,0,776.041,646.341Z" transform="translate(-17.49 -15.649)" style="fill:#17b0ff"/><path d="M320.843,271.946l3.952-28.6,24.327,2.468,3.419-24.212,24.328,2.468,3.418-24.212,4.389.532-3.951,28.6L356.4,226.522l-3.419,24.212-24.327-2.468-3.419,24.212Z" transform="translate(-17.49 -15.649)" style="fill:#17b0ff"/><path d="M121.689,285.46c.946,3.388,11.745,43.679,12.62,47.087-3.407-.875-43.7-11.668-47.088-12.614C89.682,317.419,119.175,287.921,121.689,285.46Z" transform="translate(-17.49 -15.649)" style="fill:#17b0ff;fill-opacity:0"/><path d="M137.65,335.887l-3.939-1.011c-3.545-.91-43.633-11.649-47.137-12.627l-3.916-1.093,2.844-2.905c2.57-2.625,31.915-31.973,34.505-34.51l2.9-2.844,1.094,3.916c.984,3.523,11.728,43.611,12.634,47.135ZM91.838,318.7c8.993,2.426,30.086,8.077,39.091,10.471-2.4-9-8.049-30.093-10.477-39.089C113.855,296.652,98.415,312.093,91.838,318.7Z" transform="translate(-17.49 -15.649)" style="fill:#17b0ff"/><path d="M721.648,557.592c3.941-.154,50.685-1.5,54.628-1.568-1.837,3.49-24.046,44.642-25.956,48.093C748.217,600.782,723.683,560.971,721.648,557.592Z" transform="translate(-17.49 -15.649)" style="fill:#17b0ff;fill-opacity:0"/><path d="M750.455,608.839l-2.169-3.439c-2.054-3.257-26.728-43.3-28.7-46.568l-2.1-3.484,4.064-.158c3.821-.151,50.834-1.5,54.677-1.571l4.066-.074-1.894,3.6c-1.8,3.422-24.139,44.812-25.98,48.138Zm-24.6-48.977c5.388,8.782,18.9,30.712,24.329,39.478,4.911-9.055,17.146-31.726,22.025-40.808C761.905,558.807,736.154,559.546,725.854,559.862Z" transform="translate(-17.49 -15.649)" style="fill:#17b0ff"/><path d="M21.648,557.592c3.941-.154,50.685-1.5,54.628-1.568-1.837,3.49-24.046,44.642-25.955,48.093C48.216,600.782,23.682,560.971,21.648,557.592Z" transform="translate(-17.49 -15.649)" style="fill:#17b0ff;fill-opacity:0"/><path d="M50.456,608.839,48.287,605.4c-2.037-3.23-26.713-43.27-28.7-46.569l-2.1-3.484,4.064-.158c3.823-.151,50.836-1.5,54.678-1.571l4.066-.074-1.894,3.6c-1.784,3.389-24.121,44.779-25.979,48.138Zm-24.6-48.977c5.391,8.787,18.907,30.717,24.329,39.478,4.913-9.059,17.148-31.731,22.024-40.808C61.9,558.807,36.153,559.546,25.854,559.862Z" transform="translate(-17.49 -15.649)" style="fill:#17b0ff"/><path d="M258.449,678.322c-12.154,0-22.933-5.884-28.581-13.286l3.823-2.918c6.338,8.3,20.257,14.368,34.6,9.884s22.33-17.4,22.808-27.834l4.8.221c-.554,12.108-9.723,27.059-26.177,32.2A37.741,37.741,0,0,1,258.449,678.322Z" transform="translate(-17.49 -15.649)" style="fill:#17b0ff"/><path d="M555.055,431.112c-3.331,1.012-34.344,10.446-37.674,11.459-1.013-3.331-10.447-34.344-11.459-37.673,3.33-1.014,34.344-10.447,37.674-11.459C544.608,396.768,554.042,427.782,555.055,431.112Z" transform="translate(-17.49 -15.649)" style="fill:#17b0ff;fill-opacity:0"/><path d="M515.78,445.571,502.922,403.3l2.3-.7L542.9,391.138l2.3-.7,12.859,42.273ZM508.922,406.5l10.059,33.073,33.074-10.06L542,396.439Z" transform="translate(-17.49 -15.649)" style="fill:#17b0ff"/><path d="M675.356,705.663c1.7,3.733,21.326,48.19,22.942,51.956-4.08-.4-52.4-5.626-56.466-6.11C644.217,748.175,672.9,708.947,675.356,705.663Z" transform="translate(-17.49 -15.649)" style="fill:#17b0ff;fill-opacity:0"/><path d="M702.111,760.407l-4.047-.394c-4-.392-52.6-5.649-56.516-6.116l-4.036-.481,2.364-3.306c2.32-3.244,31.17-42.7,33.555-45.886l2.434-3.258,1.681,3.7c1.659,3.655,21.4,48.367,22.962,52ZM646.2,749.579c10.583,1.167,37.639,4.1,48.237,5.22-4.281-9.75-15.273-34.642-19.6-44.385C668.536,719,652.474,740.967,646.2,749.579Z" transform="translate(-17.49 -15.649)" style="fill:#17b0ff"/><path d="M641.643,668.4l-9.382-27.5,23.017-8.8-7.886-23.345,23.019-8.8-7.887-23.346,4.16-1.5,9.383,27.5-23.018,8.8,7.886,23.345-23.018,8.8,7.886,23.345Z" transform="translate(-17.49 -15.649)" style="fill:#17b0ff"/><path d="M98.531,139.319a22.243,22.243,0,1,1-22.372-22.114A22.244,22.244,0,0,1,98.531,139.319Z" transform="translate(-17.49 -15.649)" style="fill:#17b0ff;fill-opacity:0"/><path d="M76.285,164.1a24.648,24.648,0,0,1-.141-49.295h.146a24.648,24.648,0,0,1,.141,49.3Zm.005-44.486h-.117a19.838,19.838,0,0,0,.112,39.676H76.4a19.839,19.839,0,0,0-.113-39.677Z" transform="translate(-17.49 -15.649)" style="fill:#17b0ff"/><path d="M798.53,139.319a22.243,22.243,0,1,1-22.372-22.114A22.243,22.243,0,0,1,798.53,139.319Z" transform="translate(-17.49 -15.649)" style="fill:#17b0ff;fill-opacity:0"/><path d="M776.285,164.1a24.648,24.648,0,0,1-.141-49.295h.146a24.648,24.648,0,0,1,.141,49.3Zm0-44.486h-.118a19.838,19.838,0,0,0,.113,39.676h.118a19.839,19.839,0,0,0-.113-39.677Z" transform="translate(-17.49 -15.649)" style="fill:#17b0ff"/><path d="M188.8,394.82a22.152,22.152,0,1,1,15.873-27.009A22.152,22.152,0,0,1,188.8,394.82Z" transform="translate(-17.49 -15.649)" style="fill:#17b0ff;fill-opacity:0"/><path d="M183.219,397.941a24.6,24.6,0,1,1,6.188-.794A24.553,24.553,0,0,1,183.219,397.941Zm.031-44.315a19.753,19.753,0,1,0,4.948,38.866,19.75,19.75,0,0,0-4.948-38.866Z" transform="translate(-17.49 -15.649)" style="fill:#17b0ff"/><path d="M254.182,432.011l24.462,1.586-.585,20.086,20.048,1.371-.585,20.086,20.047,1.371-.215,4.416-24.463-1.587.585-20.085-20.047-1.372.585-20.085-20.048-1.372Z" transform="translate(-17.49 -15.649)" style="fill:#17b0ff"/><path d="M348.059,400.378A23.863,23.863,0,1,1,358.7,432.405,23.862,23.862,0,0,1,348.059,400.378Z" transform="translate(-17.49 -15.649)" style="fill:#17b0ff;fill-opacity:0"/><path d="M369.373,437.345a26.273,26.273,0,1,1,11.79-49.756,26.271,26.271,0,0,1-11.79,49.756Zm.038-47.737a21.468,21.468,0,1,0,9.6,2.28A21.365,21.365,0,0,0,369.411,389.608Z" transform="translate(-17.49 -15.649)" style="fill:#17b0ff"/><path d="M276.949,559.128c3.446,1.362,44.136,17.946,47.554,19.381-2.9,2.3-37.611,29.251-40.562,31.493C283.4,606.336,277.415,562.8,276.949,559.128Z" transform="translate(-17.49 -15.649)" style="fill:#17b0ff;fill-opacity:0"/><path d="M282.159,614.377l-.6-4.022c-.528-3.565-6.547-47.349-7-50.924l-.511-4.033,3.78,1.494c3.332,1.317,44.26,18,47.6,19.4l3.75,1.573L326,580.393c-2.8,2.224-37.712,29.329-40.6,31.524ZM279.88,562.9c1.311,9.67,4.518,33.006,5.865,42.671,7.723-5.972,26.328-20.418,34.022-26.415C310.735,575.459,288.921,566.569,279.88,562.9Z" transform="translate(-17.49 -15.649)" style="fill:#17b0ff"/><path d="M517.4,597.847c-1.838-3.446-18.957-35.538-20.8-38.983l38.984-20.8,20.8,38.983Z" transform="translate(-17.49 -15.649)" style="fill:#17b0ff;fill-opacity:0"/><path d="M516.409,601.1l-1.132-2.121c-1.838-3.447-18.956-35.538-20.8-38.984l-1.133-2.122,43.228-23.059,23.059,43.227Zm-16.552-41.247c3.775,7.076,14.758,27.665,18.533,34.74l34.74-18.532L534.6,541.321Z" transform="translate(-17.49 -15.649)" style="fill:#17b0ff"/><path d="M626.237,539.279c-1.832-9.454-10.846-20.16-24.529-22.331s-25.571,5.214-30.241,13.634l-4.205-2.332c5.48-9.885,19.335-18.571,35.2-16.052s26.346,15.07,28.5,26.167Z" transform="translate(-17.49 -15.649)" style="fill:#17b0ff"/><path d="M360.182,723.2c-8.557-8.811-13.233-25.957-5.614-41.676s23.972-22.679,36.192-21.414l-.493,4.783c-10.557-1.085-24.717,5-31.371,18.728s-2.654,28.618,4.736,36.23Z" transform="translate(-17.49 -15.649)" style="fill:#17b0ff"/><path d="M180.792,124.355c3.017-1.828,39.02-23.125,42.076-24.889.074,3.527.516,45.355.517,48.883C220.293,146.65,183.847,126.119,180.792,124.355Z" transform="translate(-17.49 -15.649)" style="fill:#17b0ff;fill-opacity:0"/><path d="M225.79,152.415l-3.564-1.959c-3.227-1.774-39.488-22.2-42.637-24.019l-3.52-2.033,3.477-2.106c3.146-1.905,38.967-23.095,42.119-24.915l3.521-2.033.086,4.065c.077,3.655.517,45.271.517,48.933ZM185.572,124.3c8.127,4.6,27.231,15.36,35.379,19.93-.082-9.339-.314-31.264-.43-40.6C212.475,108.371,193.6,119.533,185.572,124.3Z" transform="translate(-17.49 -15.649)" style="fill:#17b0ff"/><path d="M507.6,220.136,487.034,234.61l-12.529-16.516-17,11.872L444.98,213.45l-16.994,11.872-2.6-3.574,20.569-14.474,12.529,16.516,17-11.872,12.53,16.516,17-11.872Z" transform="translate(-17.49 -15.649)" style="fill:#17b0ff"/><path d="M728.905,383.046a21.761,21.761,0,1,1,24.8,18.218A21.762,21.762,0,0,1,728.905,383.046Z" transform="translate(-17.49 -15.649)" style="fill:#17b0ff;fill-opacity:0"/><path d="M750.389,403.922A24.169,24.169,0,1,1,774.3,376.1a24.168,24.168,0,0,1-20.231,27.544A24.516,24.516,0,0,1,750.389,403.922Zm.053-43.528a19.583,19.583,0,0,0-2.955.226,19.358,19.358,0,0,0,2.9,38.493,19.573,19.573,0,0,0,2.955-.226,19.356,19.356,0,0,0,16.2-22.062A19.475,19.475,0,0,0,750.442,360.394Z" transform="translate(-17.49 -15.649)" style="fill:#17b0ff"/><path d="M28.906,383.046a21.761,21.761,0,1,1,24.8,18.218A21.761,21.761,0,0,1,28.906,383.046Z" transform="translate(-17.49 -15.649)" style="fill:#17b0ff;fill-opacity:0"/><path d="M50.389,403.922A24.169,24.169,0,1,1,74.3,376.1a24.168,24.168,0,0,1-20.231,27.544A24.506,24.506,0,0,1,50.389,403.922Zm.054-43.528a19.6,19.6,0,0,0-2.956.226,19.358,19.358,0,0,0,2.9,38.493,19.583,19.583,0,0,0,2.955-.226,19.356,19.356,0,0,0,16.205-22.062A19.473,19.473,0,0,0,50.443,360.394Z" transform="translate(-17.49 -15.649)" style="fill:#17b0ff"/><path d="M94.274,792.607c-10.524-4.932-20.406-18.535-18.931-35s13.619-28.089,24.853-31.07l1.233,4.649c-9.616,2.551-20.018,12.593-21.3,26.85s7.173,25.99,16.182,30.21Z" transform="translate(-17.49 -15.649)" style="fill:#17b0ff"/><path d="M794.274,792.607c-10.524-4.932-20.407-18.535-18.93-35s13.618-28.089,24.852-31.07l1.233,4.649c-9.616,2.551-20.019,12.593-21.3,26.85s7.174,25.99,16.182,30.21Z" transform="translate(-17.49 -15.649)" style="fill:#17b0ff"/><path d="M632.408,345.233c3.75-.771,48.315-9.453,52.08-10.146-1.207,3.634-15.971,46.569-17.254,50.177C664.691,382.4,634.891,348.148,632.408,345.233Z" transform="translate(-17.49 -15.649)" style="fill:#17b0ff;fill-opacity:0"/><path d="M668.138,389.9l-2.7-3.041c-2.678-3.017-32.325-37.093-34.859-40.069l-2.636-3.095,3.983-.819c3.637-.748,48.459-9.48,52.129-10.156l4-.735-1.282,3.858c-1.17,3.523-16.019,46.707-17.27,50.225Zm-31.21-43.115c6.572,7.583,22.78,26.214,29.392,33.786,3.285-9.494,11.315-32.846,14.563-42.349C671.018,340.126,646.78,344.848,636.928,346.787Z" transform="translate(-17.49 -15.649)" style="fill:#17b0ff"/><path d="M180.436,460.316l24.518,8.321L198.787,489.2l20.309,6.969-6.167,20.566,20.309,6.969-1.352,4.209L207.368,519.6l6.167-20.567-20.31-6.969,6.168-20.567-20.309-6.968Z" transform="translate(-17.49 -15.649)" style="fill:#17b0ff"/><path d="M161.417,234.839,121.089,226.5c.738-3.564,7.6-36.763,8.342-40.328l40.328,8.342C169.021,198.075,162.155,231.274,161.417,234.839Z" transform="translate(-17.49 -15.649)" style="fill:#17b0ff;fill-opacity:0"/><path d="M163.285,237.68l-45.038-9.315,9.316-45.038,45.037,9.316Zm-39.354-13.05L159.55,232l7.367-35.619L131.3,189.011Z" transform="translate(-17.49 -15.649)" style="fill:#17b0ff"/><path d="M427.683,643.316c-.48-3.926-5.7-50.532-6.1-54.466,3.64,1.546,46.612,20.328,50.22,21.95C468.644,613.18,430.892,641,427.683,643.316Z" transform="translate(-17.49 -15.649)" style="fill:#17b0ff;fill-opacity:0"/><path d="M425.791,647.645l-.494-4.037c-.469-3.832-5.718-50.7-6.105-54.515l-.411-4.046,3.743,1.59c3.545,1.505,46.764,20.4,50.266,21.97l3.708,1.668-3.247,2.446c-3.068,2.31-41.037,30.293-44.161,32.545ZM424.42,592.7c1.13,10.267,4.009,35.972,5.178,46.239,8.33-6.114,29.153-21.46,37.457-27.605C457.6,607.176,433.894,596.816,424.42,592.7Z" transform="translate(-17.49 -15.649)" style="fill:#17b0ff"/><path d="M172.359,684.9c2.823,2.654,35.96,34.482,38.726,37.2-3.71,1.117-47.842,13.9-51.576,14.939C160.4,733.267,171.393,688.656,172.359,684.9Z" transform="translate(-17.49 -15.649)" style="fill:#17b0ff;fill-opacity:0"/><path d="M156.237,740.447l.931-3.958c.863-3.666,11.922-48.535,12.863-52.185l1.014-3.938,2.962,2.786c2.734,2.571,36.063,34.584,38.762,37.231l2.9,2.848-3.893,1.172c-3.6,1.085-47.992,13.942-51.625,14.953Zm17.452-50.953c-2.448,9.85-8.459,34.24-10.869,44.1,9.754-2.8,33.883-9.794,43.625-12.636C199.139,713.91,181.021,696.509,173.689,689.494Z" transform="translate(-17.49 -15.649)" style="fill:#17b0ff"/><path d="M434.574,425.232l23.388,13.494-10.574,19.952,19.522,11.348-10.574,19.952,19.522,11.348-2.146,3.866-23.388-13.5L460.9,471.744,441.377,460.4l10.574-19.952L432.428,429.1Z" transform="translate(-17.49 -15.649)" style="fill:#17b0ff"/><path d="M656.145,439.652a23.915,23.915,0,1,1-33.742,2.292A23.914,23.914,0,0,1,656.145,439.652Z" transform="translate(-17.49 -15.649)" style="fill:#17b0ff;fill-opacity:0"/><path d="M640.411,483.989a26.32,26.32,0,1,1,19.839-9.013A26.3,26.3,0,0,1,640.411,483.989Zm.019-47.831a21.512,21.512,0,1,0,14.134,5.305A21.515,21.515,0,0,0,640.43,436.158Z" transform="translate(-17.49 -15.649)" style="fill:#17b0ff"/><path d="M650.46,114.456a23.73,23.73,0,1,1,6.418,32.94A23.73,23.73,0,0,1,650.46,114.456Z" transform="translate(-17.49 -15.649)" style="fill:#17b0ff;fill-opacity:0"/><path d="M670.117,153.854a26.137,26.137,0,1,1,21.694-11.532A26.011,26.011,0,0,1,670.117,153.854Zm.043-47.465a21.328,21.328,0,1,0,11.9,3.643A21.317,21.317,0,0,0,670.16,106.389Z" transform="translate(-17.49 -15.649)" style="fill:#17b0ff"/><path d="M142.258,556.743l44.854,8.686c-.767,3.965-7.917,40.89-8.685,44.854L133.573,601.6C134.34,597.634,141.49,560.708,142.258,556.743Z" transform="translate(-17.49 -15.649)" style="fill:#17b0ff;fill-opacity:0"/><path d="M180.331,613.1l-49.576-9.6,9.6-49.575,49.576,9.6ZM136.391,599.7l40.132,7.77,7.771-40.133-40.132-7.77Z" transform="translate(-17.49 -15.649)" style="fill:#17b0ff"/><path d="M538.3,246.547a21.73,21.73,0,1,1,28.326,11.918A21.73,21.73,0,0,1,538.3,246.547Z" transform="translate(-17.49 -15.649)" style="fill:#17b0ff;fill-opacity:0"/><path d="M558.433,262.483a24.147,24.147,0,1,1,9.105-1.792A24.053,24.053,0,0,1,558.433,262.483Zm-.015-43.472a19.329,19.329,0,1,0,17.9,12.035A19.214,19.214,0,0,0,558.418,219.011Z" transform="translate(-17.49 -15.649)" style="fill:#17b0ff"/><path d="M450.391,339.3a20.684,20.684,0,1,1,29.234,1.06A20.684,20.684,0,0,1,450.391,339.3Z" transform="translate(-17.49 -15.649)" style="fill:#17b0ff;fill-opacity:0"/><path d="M465.542,348.3a23.088,23.088,0,1,1,15.721-6.182A23.169,23.169,0,0,1,465.542,348.3Zm-.01-41.369a18.281,18.281,0,1,0,13.391,5.831A18.214,18.214,0,0,0,465.532,306.935Z" transform="translate(-17.49 -15.649)" style="fill:#17b0ff"/><path d="M692.444,243.091c3.881-1.553,50.079-19.476,53.991-20.947-.595,4.137-8.172,53.108-8.854,57.231C734.3,276.791,695.674,245.743,692.444,243.091Z" transform="translate(-17.49 -15.649)" style="fill:#17b0ff;fill-opacity:0"/><path d="M739.29,283.78l-3.195-2.515c-3.191-2.509-42.034-33.734-45.177-36.316l-3.142-2.58,3.775-1.51c3.774-1.511,50.237-19.537,54.039-20.966l3.8-1.431-.58,4.025c-.575,3.992-8.194,53.243-8.862,57.28Zm-42.124-39.958c8.43,6.8,30.23,24.329,38.686,31.1,1.679-10.705,5.956-38.347,7.589-49.052C733.336,229.765,707.259,239.883,697.166,243.822Z" transform="translate(-17.49 -15.649)" style="fill:#17b0ff"/><path d="M425.124,536.365,400.2,548.16,389.544,527.6l-20.962,9.839-10.653-20.561-20.963,9.839-1.956-3.964,24.926-11.8,10.654,20.561,20.962-9.839,10.653,20.561,20.963-9.839Z" transform="translate(-17.49 -15.649)" style="fill:#17b0ff"/><path d="M573.049,340.573a37.474,37.474,0,0,1-13.508-2.518c-16.009-6.162-24.157-21.594-23.932-33.653l4.809.089c-.194,10.386,6.906,23.708,20.85,29.076s28.146.244,34.965-7.591l3.627,3.157C594.187,335.651,584.163,340.573,573.049,340.573Z" transform="translate(-17.49 -15.649)" style="fill:#17b0ff"/><path d="M123.41,472.267A20.309,20.309,0,1,1,145.978,454.5,20.309,20.309,0,0,1,123.41,472.267Z" transform="translate(-17.49 -15.649)" style="fill:#17b0ff;fill-opacity:0"/><path d="M125.837,474.816a23.024,23.024,0,0,1-2.711-.161,22.715,22.715,0,0,1,2.661-45.27,23.007,23.007,0,0,1,2.71.161,22.715,22.715,0,0,1-2.66,45.27Zm-.05-40.622a17.905,17.905,0,0,0-2.093,35.685,18.122,18.122,0,0,0,2.143.128,17.905,17.905,0,0,0,2.092-35.685A18.118,18.118,0,0,0,125.787,434.194Z" transform="translate(-17.49 -15.649)" style="fill:#17b0ff"/><path d="M275.931,314.2c1.514,3.7,19,47.707,20.439,51.434-3.958-.537-50.817-7.4-54.763-8.016C244.052,354.463,273.421,317.312,275.931,314.2Z" transform="translate(-17.49 -15.649)" style="fill:#17b0ff;fill-opacity:0"/><path d="M300.075,368.568l-4.029-.547c-3.834-.52-50.962-7.419-54.812-8.024l-4.017-.631,2.488-3.216c2.377-3.072,31.916-40.436,34.355-43.456l2.555-3.164,1.541,3.763c1.477,3.606,19.066,47.87,20.457,51.481Zm-54.026-12.711c10.307,1.529,36.261,5.329,46.571,6.818-3.827-9.689-13.514-34.066-17.381-43.742C268.762,327.093,252.494,347.671,246.049,355.857Z" transform="translate(-17.49 -15.649)" style="fill:#17b0ff"/><path d="M535.825,156.69a20.421,20.421,0,1,1,27-10.243A20.421,20.421,0,0,1,535.825,156.69Z" transform="translate(-17.49 -15.649)" style="fill:#17b0ff;fill-opacity:0"/><path d="M544.192,160.9a22.832,22.832,0,1,1,20.827-13.465A22.645,22.645,0,0,1,544.192,160.9Zm.024-40.852a18.037,18.037,0,1,0,7.382,1.592A18.058,18.058,0,0,0,544.216,120.046Z" transform="translate(-17.49 -15.649)" style="fill:#17b0ff"/><path d="M223.477,229.988A21.764,21.764,0,1,1,229.84,260.1,21.764,21.764,0,0,1,223.477,229.988Z" transform="translate(-17.49 -15.649)" style="fill:#17b0ff;fill-opacity:0"/><path d="M241.7,266.035a24.172,24.172,0,1,1,20.274-10.984A24.078,24.078,0,0,1,241.7,266.035Zm.04-43.534a19.366,19.366,0,1,0,10.544,3.139A19.313,19.313,0,0,0,241.736,222.5Z" transform="translate(-17.49 -15.649)" style="fill:#17b0ff"/><path d="M615.461,224.948a29.6,29.6,0,0,1-11.07-2.035l1.81-4.455c8.79,3.571,22.485,1.886,31.644-8.251s9.449-23.93,5-32.317l4.25-2.252c5.228,9.866,4.954,26.015-5.686,37.792A35.023,35.023,0,0,1,615.461,224.948Z" transform="translate(-17.49 -15.649)" style="fill:#17b0ff"/><path d="M527.588,788.616l2.5-25.224,20.887,1.316,2.134-20.818L574,745.207l2.135-20.819,4.4.365-2.5,25.224-20.887-1.317-2.134,20.819-20.887-1.317-2.135,20.819Z" transform="translate(-17.49 -15.649)" style="fill:#17b0ff"/><path d="M281.84,715.649l23.552,17.056-13.73,20.484,19.929,14.523L297.86,788.2l19.929,14.523-2.532,3.623L291.7,789.286,305.435,768.8l-19.93-14.523L299.236,733.8l-19.929-14.523Z" transform="translate(-17.49 -15.649)" style="fill:#17b0ff"/><path d="M281.84,15.649l23.552,17.056-13.73,20.484,19.929,14.524L297.86,88.2l19.929,14.523-2.532,3.624L291.7,89.286,305.435,68.8l-19.93-14.523L299.236,33.8,279.307,19.272Z" transform="translate(-17.49 -15.649)" style="fill:#17b0ff"/><path d="M520.049,670.527l19.967-14.515,12.494,15.956,16.433-11.859,12.493,15.957,16.434-11.86,2.657,3.534L580.56,682.255,568.066,666.3l-16.433,11.858L539.14,662.2,522.706,674.06Z" transform="translate(-17.49 -15.649)" style="fill:#17b0ff"/><path d="M713.889,477.929a22.275,22.275,0,1,1,22.835,21.7A22.274,22.274,0,0,1,713.889,477.929Z" transform="translate(-17.49 -15.649)" style="fill:#17b0ff;fill-opacity:0"/><path d="M736.145,502.042a24.68,24.68,0,0,1-.617-49.352c.213,0,.427-.008.638-.008a24.68,24.68,0,0,1,.619,49.352C736.571,502.039,736.357,502.042,736.145,502.042Zm.021-44.551c-.17,0-.344,0-.515.007a19.848,19.848,0,1,0,.515-.007Z" transform="translate(-17.49 -15.649)" style="fill:#17b0ff"/><path d="M428.08,103.8c.609,4.166,7.311,53.644,7.832,57.822C432,160.061,385.8,141.126,381.92,139.488,385.224,136.878,424.723,106.336,428.08,103.8Z" transform="translate(-17.49 -15.649)" style="fill:#17b0ff;fill-opacity:0"/><path d="M438.8,165.354l-3.779-1.5c-3.822-1.52-50.285-20.564-54.038-22.149l-3.746-1.581,3.191-2.521c3.206-2.533,42.928-33.249,46.2-35.724l3.242-2.453.588,4.023c.59,4.027,7.329,53.787,7.839,57.873Zm-52.147-26.507c10.076,4.154,36.236,14.876,46.334,18.991-1.441-10.81-5.236-38.825-6.721-49.622C417.629,114.868,395.266,132.161,386.655,138.847Z" transform="translate(-17.49 -15.649)" style="fill:#17b0ff"/><path d="M399.407,349.742c-10.631-.665-23.628-8.938-27.9-23.46s2.172-28.516,10.748-34.834l2.852,3.872c-7.228,5.325-12.635,17.2-8.986,29.605s14.629,19.457,23.589,20.018Z" transform="translate(-17.49 -15.649)" style="fill:#17b0ff"/><path d="M490.57,753.936l-25.838,3.543-3.711-21.34-21.468,2.872-3.711-21.34-21.468,2.871-.672-4.369,25.838-3.543,3.711,21.339,21.468-2.871,3.711,21.34,21.468-2.872Z" transform="translate(-17.49 -15.649)" style="fill:#17b0ff"/><path d="M325.041,144.115a20.859,20.859,0,1,1-28.173-8.749A20.858,20.858,0,0,1,325.041,144.115Z" transform="translate(-17.49 -15.649)" style="fill:#17b0ff;fill-opacity:0"/><path d="M306.6,177.1a23.28,23.28,0,1,1,10.814-2.68A23.221,23.221,0,0,1,306.6,177.1Zm-.036-41.727a18.459,18.459,0,1,0,16.351,9.866A18.491,18.491,0,0,0,306.562,135.368Z" transform="translate(-17.49 -15.649)" style="fill:#17b0ff"/></svg>